<?xml version="1.0" encoding="UTF-8"?>
<svg version="1.1" xmlns="http://www.w3.org/2000/svg" width="1191" height="916">
<path d="M0 0 C393.03 0 786.06 0 1191 0 C1191 302.28 1191 604.56 1191 916 C797.97 916 404.94 916 0 916 C0 613.72 0 311.44 0 0 Z " fill="#000000" transform="translate(0,0)"/>
<path d="M0 0 C247.5 0 495 0 750 0 C750 83.49 750 166.98 750 253 C735.48 253.33 720.96 253.66 706 254 C694.62422428 258.13664572 688.10716392 261.39281339 683 272 C682.649375 272.71285156 682.29875 273.42570312 681.9375 274.16015625 C680.65769052 278.03691248 680.53829537 281.75392962 680.375 285.8125 C680.33632813 286.60076172 680.29765625 287.38902344 680.2578125 288.20117188 C680.16411156 290.1337538 680.08099221 292.06684376 680 294 C679.01 293.34 678.02 292.68 677 292 C677 291.34 677 290.68 677 290 C676.1646875 289.5978125 676.1646875 289.5978125 675.3125 289.1875 C671.91564453 287.44316881 668.69641842 285.42464538 665.4375 283.4375 C664.633125 282.963125 663.82875 282.48875 663 282 C662.10667969 281.42572266 662.10667969 281.42572266 661.1953125 280.83984375 C654.79984024 278.39317731 645.6620456 279.07836068 639.08203125 280.734375 C631.59274795 284.1063851 625.91033863 290.44615348 620 296 C619.46907745 296.49861542 618.93815491 296.99723083 618.3911438 297.51095581 C615.16109222 300.55548952 611.96653945 303.63336355 608.7980957 306.74194336 C607.72243708 307.79086134 606.63968073 308.8325485 605.55004883 309.86694336 C595.83414274 319.10090102 588.03011709 328.70590184 587.1875 342.625 C587.67690128 352.04108067 591.19284835 359.5108947 597.875 366.125 C598.47054687 366.64320313 599.06609375 367.16140625 599.6796875 367.6953125 C600.11539063 368.12585938 600.55109375 368.55640625 601 369 C601 369.66 601 370.32 601 371 C599.96101562 371.08636719 598.92203125 371.17273438 597.8515625 371.26171875 C589.33417639 372.07757208 582.33471047 373.25997959 575 378 C574.071875 378.598125 573.14375 379.19625 572.1875 379.8125 C563.52645695 388.47354305 561.53336678 398.57668006 561.53125 410.390625 C561.51982971 412.16212921 561.51982971 412.16212921 561.50817871 413.96942139 C561.49740795 416.46054987 561.49451224 418.95172341 561.49902344 421.44287109 C561.49999344 425.22441269 561.45837977 429.00390823 561.4140625 432.78515625 C561.40885293 435.21614165 561.40616735 437.64713402 561.40625 440.078125 C561.38985474 441.194151 561.37345947 442.310177 561.35656738 443.46002197 C561.4489223 454.12341632 564.6488504 463.52813892 572.11328125 471.31640625 C580.40759048 478.71774637 589.16924489 480.25575281 600 481 C599.41685543 484.52219321 598.16056026 486.16148342 595.6875 488.6875 C588.92236047 496.28784194 587.16736525 503.00795393 587.50390625 513.2265625 C589.05558027 525.0290594 596.95882883 532.9186134 605 541 C606.3788301 542.40630085 607.75761358 543.81264766 609.13569641 545.21968079 C611.70783625 547.8415063 614.29139242 550.45198352 616.875 553.0625 C617.38481415 553.57962555 617.8946283 554.0967511 618.41989136 554.62954712 C619.89690683 556.12442265 621.3809421 557.61196331 622.8671875 559.09765625 C624.16825439 560.40488647 624.16825439 560.40488647 625.49560547 561.73852539 C627.92312772 564.07885765 627.92312772 564.07885765 630.82080078 565.68139648 C631.89950439 566.33410522 631.89950439 566.33410522 633 567 C633 567.66 633 568.32 633 569 C643.5122106 571.8277527 654.83484725 574.03832961 665.25 569.5 C669.65944755 566.93659015 673.31022914 563.31703501 676.99609375 559.828125 C679 558 679 558 680 558 C680.01417969 559.11117187 680.02835938 560.22234375 680.04296875 561.3671875 C680.43068928 575.9740657 684.39199028 584.78487953 695 595 C692.18353912 595.93882029 690.48261085 596.12574876 687.56957394 596.1276505 C686.65568684 596.13066647 685.74179974 596.13368244 684.80021909 596.1367898 C683.79277094 596.13502033 682.7853228 596.13325086 681.74734592 596.13142776 C680.67536226 596.1334804 679.60337859 596.13553303 678.49891058 596.13764787 C674.87023919 596.14334805 671.2416054 596.14185691 667.6129303 596.14044189 C664.99964477 596.14302381 662.38635963 596.14603649 659.77307504 596.1494453 C653.32049647 596.15703642 646.86792616 596.15921892 640.41534358 596.15977435 C632.68938374 596.16068692 624.96343159 596.16735133 617.23747505 596.17412117 C598.56029628 596.19019594 579.88311831 596.19608643 561.20593386 596.20086992 C552.37149979 596.20320471 543.53706637 596.20680726 534.70263281 596.2105653 C504.46648764 596.22340302 474.23034283 596.23412131 443.99419498 596.2375679 C442.09539798 596.23778954 440.19660097 596.23801132 438.29780396 596.23823325 C436.39438764 596.23845389 434.49097132 596.23867438 432.58755499 596.2388947 C428.76890059 596.23933726 424.95024619 596.23978437 421.1315918 596.24023438 C420.18478445 596.24034377 419.23797711 596.24045316 418.26247864 596.24056586 C387.56774526 596.24419584 356.87303551 596.26011254 326.17831118 596.28342474 C293.73319864 596.3080213 261.2880996 596.32174069 228.84297746 596.32293582 C225.2810802 596.32310728 221.71918295 596.3233227 218.15728569 596.32357025 C216.84170772 596.3236539 216.84170772 596.3236539 215.49955242 596.32373925 C201.38441999 596.32488995 187.26931179 596.33591379 173.15418754 596.35045731 C158.9646696 596.36482457 144.77518273 596.36805802 130.58565951 596.36001733 C122.15645562 596.3555619 113.727352 596.35941818 105.29816129 596.37525584 C99.66428217 596.38501171 94.03047324 596.38382178 88.39659475 596.37381961 C85.18860869 596.36843186 81.98085311 596.36936853 78.77287567 596.38032833 C75.31015194 596.39140926 71.84793416 596.38393949 68.38522434 596.3719368 C67.39884669 596.37953199 66.41246904 596.38712718 65.39620116 596.39495254 C55.4162339 596.3203696 45.89921288 594.03989169 37 589.5 C36.328479 589.15960693 35.65695801 588.81921387 34.96508789 588.46850586 C19.63176739 580.27992612 8.73585891 566.05407704 2.86725259 549.87765783 C-0.53290922 538.5093652 -0.55008642 527.56674882 -0.48101807 515.7716217 C-0.48277058 513.54489445 -0.48628342 511.318168 -0.49139404 509.09144592 C-0.50032531 502.9937157 -0.48436809 496.8962688 -0.46429092 490.79857452 C-0.44857972 484.80331016 -0.45197508 478.80807243 -0.45472172 472.81279538 C-0.45967612 460.62975237 -0.44657438 448.44679596 -0.42230225 436.26377869 C-0.3895412 419.79068921 -0.38188584 403.31774755 -0.37841797 386.84460449 C-0.35743009 347.25055208 -0.30158548 307.65652437 -0.25 268.0625 C-0.1675 179.601875 -0.085 91.14125 0 0 Z " fill="#7CD510" transform="translate(227,278)"/>
<path d="M0 0 C2.61070863 -0.00317974 5.22141561 -0.00811046 7.83211803 -0.01463282 C13.49008294 -0.02594901 19.14788681 -0.02255509 24.80584526 -0.00926208 C33.21922673 0.0104498 41.63249132 0.00708893 50.0458866 -0.00076268 C64.20351828 -0.01328816 78.36108318 -0.0069984 92.51870728 0.01042557 C106.53431823 0.02767094 120.54989918 0.03746549 134.56552124 0.0370903 C135.87462802 0.03706737 135.87462802 0.03706737 137.21018139 0.03704397 C140.75301673 0.03696214 144.29585205 0.03683092 147.83868738 0.03663234 C181.04918866 0.03482157 214.25964425 0.05469067 247.47012968 0.08549167 C276.97732618 0.11275711 306.48449024 0.12521337 335.99169922 0.12387085 C337.88755329 0.12379003 339.78340737 0.12370931 341.67926145 0.12362869 C343.08517501 0.12356764 343.08517501 0.12356764 344.51949086 0.12350535 C349.23759311 0.12330376 353.95569536 0.1231226 358.67379761 0.12296486 C359.6046066 0.12293143 360.53541559 0.12289801 361.49443091 0.12286357 C386.15619869 0.12213347 410.81796241 0.13120751 435.47972679 0.14361799 C436.35678071 0.14405853 437.23383462 0.14449907 438.13746593 0.14495297 C441.66425691 0.14672941 445.19104789 0.1485062 448.71783884 0.15033488 C460.99009237 0.15665535 473.2623427 0.15967346 485.53459775 0.16055786 C501.34288207 0.16175137 517.15113964 0.16972763 532.95941252 0.18942077 C541.32082717 0.19965707 549.68220254 0.20446739 558.04362316 0.20142841 C564.27971261 0.19978908 570.51574573 0.20858237 576.75182104 0.22152941 C579.2797417 0.22516399 581.80766987 0.22540898 584.33559084 0.22199483 C587.76184454 0.21787841 591.18785728 0.2259696 594.61408997 0.23720741 C595.60375513 0.23309678 596.5934203 0.22898614 597.61307532 0.22475094 C602.93289272 0.25679317 607.23713754 0.84391691 612.28808594 2.49447632 C613.5990625 2.61564819 614.91003906 2.73682007 616.26074219 2.86166382 C620.76697227 3.36295886 623.95641833 5.19817375 627.72558594 7.61947632 C628.70217163 8.22952515 628.70217163 8.22952515 629.69848633 8.85189819 C647.47552953 20.10973492 659.41562245 34.7933885 664.28808594 55.49447632 C665.13102119 59.82870134 665.40993826 63.91274669 665.40161133 68.32601929 C665.40175735 68.98038467 665.40190338 69.63475006 665.40205383 70.3089447 C665.40136241 72.45155258 665.39360646 74.5940713 665.38574219 76.73666382 C665.38387527 78.23024447 665.38245266 79.72382574 665.38145447 81.21740723 C665.37765088 85.13332839 665.36783918 89.049212 665.35675049 92.96511841 C665.34648981 96.96708671 665.3419469 100.96906113 665.33691406 104.97103882 C665.32621483 112.81220182 665.30916453 120.65333438 665.28808594 128.49447632 C579.01370015 129.34298921 492.73903439 129.57173265 364.99511719 129.59213257 C363.35476706 129.59210415 361.71441694 129.592076 360.07406682 129.59204811 C319.80137238 129.59123016 279.52868143 129.58162464 239.25598942 129.56821065 C213.1656956 129.559521 187.07540239 129.55333304 160.98510742 129.54940796 C160.11653071 129.54927643 159.247954 129.54914491 158.35305678 129.54900939 C149.6243749 129.54769001 140.895693 129.54641432 132.1670111 129.54517054 C114.41177099 129.54263952 96.65653093 129.5398183 78.90129089 129.53681946 C78.08630493 129.53668217 77.27131896 129.53654488 76.43163645 129.53640343 C22.7171184 129.5273218 -30.997398 129.51147134 -84.71191406 129.49447632 C-84.78178673 120.44451371 -84.83491286 111.39464564 -84.86735058 102.34447098 C-84.88292829 98.14095704 -84.90401996 93.93762926 -84.93823242 89.73422241 C-84.97111051 85.66877188 -84.98882625 81.60349907 -84.99654579 77.53792572 C-85.00203875 75.99597124 -85.01276329 74.45402519 -85.02910423 72.91214752 C-85.15418713 60.60716851 -83.80744695 49.4510394 -78.08691406 38.36947632 C-77.74063965 37.69134888 -77.39436523 37.01322144 -77.03759766 36.31454468 C-73.77401103 30.18236031 -69.72807821 25.30058334 -64.71191406 20.49447632 C-63.95265625 19.71588257 -63.19339844 18.93728882 -62.41113281 18.13510132 C-44.77178791 0.92880089 -23.20159593 -0.10251365 0 0 Z " fill="#7BBB19" transform="translate(311.7119140625,126.50552368164063)"/>
<path d="M0 0 C0.98152039 -0.01606293 1.96304077 -0.03212585 2.9743042 -0.04867554 C7.47016744 -0.09312124 11.96588245 -0.13419872 16.46191406 -0.15722656 C18.83245669 -0.17377882 21.20294956 -0.20105888 23.57324219 -0.23925781 C26.99082336 -0.29405729 30.40723378 -0.31590715 33.82519531 -0.33056641 C34.88164246 -0.35323578 35.9380896 -0.37590515 37.02655029 -0.39926147 C45.25017625 -0.37568543 45.25017625 -0.37568543 48.93164062 2.47558594 C52.86771597 7.03327618 52.40027675 10.43550133 52.37597656 16.36474609 C52.37385414 17.3883725 52.37385414 17.3883725 52.37168884 18.43267822 C52.36611115 20.60278793 52.35356285 22.7727928 52.34082031 24.94287109 C52.33580243 26.41813002 52.33124002 27.89339056 52.32714844 29.36865234 C52.31614906 32.97675908 52.29889984 36.58480484 52.27832031 40.19287109 C53.11254517 40.46224487 53.11254517 40.46224487 53.96362305 40.73706055 C59.16995228 42.4417002 64.2690784 44.31216334 69.34082031 46.38037109 C70.57829279 46.88226838 71.81584708 47.38396394 73.0534668 47.88549805 C74.64976929 48.53264771 74.64976929 48.53264771 76.27832031 49.19287109 C76.93429199 48.5316626 77.59026367 47.8704541 78.26611328 47.18920898 C80.69803067 44.74026257 83.13217396 42.29357356 85.56787109 39.84838867 C86.62216061 38.78906636 87.6755514 37.7288488 88.72802734 36.66772461 C90.23983888 35.14380148 91.75483934 33.62311326 93.27050781 32.10302734 C94.18171387 31.18658447 95.09291992 30.2701416 96.03173828 29.32592773 C99.24998992 26.27030237 101.60796621 25.64763363 106.09594727 25.73608398 C108.74918746 26.29142713 109.83356536 27.17216903 111.82128906 29.00146484 C112.51351563 29.63745605 113.20574219 30.27344727 113.91894531 30.92871094 C118.1387334 34.97820542 122.30710687 39.07406148 126.43383789 43.21801758 C127.9700694 44.75963507 129.51160998 46.29579918 131.05371094 47.83154297 C132.0494746 48.82796713 133.04492817 49.82470128 134.04003906 50.82177734 C134.92651123 51.70937744 135.8129834 52.59697754 136.72631836 53.51147461 C143.95769019 61.10949975 143.95769019 61.10949975 144.90722656 64.31787109 C144.87435547 65.24599609 144.87435547 65.24599609 144.84082031 66.19287109 C144.84210938 66.81162109 144.84339844 67.43037109 144.84472656 68.06787109 C142.654292 76.28577733 134.34076051 82.11618982 128.39355469 87.64794922 C127.59626953 88.416875 126.79898437 89.18580078 125.97753906 89.97802734 C125.24365967 90.66775635 124.50978027 91.35748535 123.75366211 92.06811523 C121.99740289 94.12029239 121.99740289 94.12029239 122.47705078 96.79516602 C123.67835711 100.3899343 125.3440748 103.69272194 127.02441406 107.08349609 C128.61837467 111.03612115 129.45789971 115.02100638 130.27832031 119.19287109 C131.28209717 119.16668701 132.28587402 119.14050293 133.32006836 119.11352539 C137.05649383 119.02278941 140.79282266 118.96553847 144.5300293 118.91821289 C146.14510492 118.89312151 147.76006758 118.85903984 149.37475586 118.81567383 C151.70096738 118.75477824 154.0256739 118.72660986 156.35253906 118.70458984 C157.42939217 118.6658802 157.42939217 118.6658802 158.52799988 118.62638855 C162.4490351 118.62421195 164.10983138 119.05826789 167.21118164 121.53588867 C169.91327411 125.00900457 170.40341691 127.48080852 170.45532227 131.75268555 C170.4681575 132.67406815 170.48099274 133.59545074 170.49421692 134.54475403 C170.50529732 136.03539619 170.50529732 136.03539619 170.51660156 137.55615234 C170.52467331 138.58089157 170.53274506 139.6056308 170.5410614 140.66142273 C170.55489473 142.83098665 170.56562025 145.00057226 170.57348633 147.17016602 C170.59069984 150.48219168 170.63459356 153.79321929 170.67871094 157.10498047 C170.68883807 159.21369709 170.69735411 161.3224222 170.70410156 163.43115234 C170.72160965 164.41884109 170.73911774 165.40652985 170.75715637 166.42414856 C170.73861465 172.32363899 170.21991918 175.70371329 166.27832031 180.19287109 C163.21237437 181.72584406 160.00720178 181.31418564 156.64550781 181.29052734 C155.89367218 181.2891124 155.14183655 181.28769745 154.36721802 181.28623962 C151.96254522 181.28063575 149.55796504 181.26808266 147.15332031 181.25537109 C145.52441541 181.25035659 143.89550904 181.2457936 142.26660156 181.24169922 C138.27047205 181.23066506 134.27441189 181.21339788 130.27832031 181.19287109 C130.17092529 181.77004883 130.06353027 182.34722656 129.95288086 182.94189453 C128.70992509 189.11390091 126.5213404 193.91014701 123.42285156 199.39599609 C122.070299 202.70120988 122.21823198 203.83175446 123.27832031 207.19287109 C124.98438151 209.41494626 124.98438151 209.41494626 127.20800781 211.44287109 C128.00335937 212.21630859 128.79871094 212.98974609 129.61816406 213.78662109 C130.87306641 214.97771484 130.87306641 214.97771484 132.15332031 216.19287109 C133.80110436 217.77146359 135.44449782 219.35465463 137.08300781 220.94287109 C137.81503418 221.63896484 138.54706055 222.33505859 139.30126953 223.05224609 C142.33622029 226.33829799 144.08889356 229.07735799 144.84082031 233.50537109 C143.37491879 243.11516996 133.09184784 250.65278017 126.45483398 257.22216797 C124.57958174 259.07899927 122.71261978 260.9438741 120.84667969 262.81005859 C119.65379369 263.99803412 118.46045064 265.18555091 117.26660156 266.37255859 C116.7103157 266.92773163 116.15402985 267.48290466 115.58088684 268.05490112 C109.06982086 274.48623154 109.06982086 274.48623154 104.34472656 275.03662109 C98.04186652 274.89357746 94.39219814 270.27868916 90.31152344 266.01708984 C89.2791104 264.90949395 88.24721558 263.8014148 87.21582031 262.69287109 C86.15089088 261.58275302 85.08385055 260.47465582 84.01464844 259.36865234 C81.41087934 256.66614905 78.8374401 253.93766433 76.27832031 251.19287109 C73.22147618 252.40948241 70.17494298 253.64540842 67.14160156 254.91943359 C66.39974609 255.22880859 65.65789062 255.53818359 64.89355469 255.85693359 C63.34563909 256.5028831 61.79877721 257.15136293 60.25292969 257.80224609 C59.51494141 258.10904297 58.77695312 258.41583984 58.01660156 258.73193359 C57.34669189 259.01246582 56.67678223 259.29299805 55.98657227 259.58203125 C54.27832031 260.19287109 54.27832031 260.19287109 52.27832031 260.19287109 C52.30450439 261.16111816 52.33068848 262.12936523 52.35766602 263.12695312 C52.44854956 266.73853206 52.50570581 270.35001113 52.55297852 273.96240234 C52.57803658 275.52214588 52.61209333 277.08177299 52.65551758 278.64111328 C52.71656224 280.89042952 52.74461457 283.1381867 52.76660156 285.38818359 C52.79240799 286.0790506 52.81821442 286.7699176 52.84480286 287.48171997 C52.8469803 291.28842113 52.26300703 293.68342468 49.93530273 296.61816406 C46.47338821 299.97287789 44.14863144 300.31617604 39.51904297 300.36987305 C38.55439117 300.38270828 37.58973938 300.39554352 36.59585571 300.4087677 C35.03488663 300.4198481 35.03488663 300.4198481 33.44238281 300.43115234 C32.37087982 300.43922409 31.29937683 300.44729584 30.19540405 300.45561218 C27.92748633 300.46944586 25.65954784 300.48017121 23.39160156 300.48803711 C19.92375345 300.50526956 16.45685384 300.54916541 12.98925781 300.59326172 C10.78613982 300.60338706 8.58301373 300.61190366 6.37988281 300.61865234 C5.34328522 300.63616043 4.30668762 300.65366852 3.23867798 300.67170715 C-3.93187774 300.6501017 -3.93187774 300.6501017 -7.79052734 298.41625977 C-11.74556767 293.86271334 -11.96510537 290.86450763 -11.91699219 284.80224609 C-11.91274734 283.74532562 -11.91274734 283.74532562 -11.90841675 282.66705322 C-11.8972577 280.42548349 -11.87216162 278.18431924 -11.84667969 275.94287109 C-11.83664433 274.41943938 -11.82751945 272.89600138 -11.81933594 271.37255859 C-11.79733259 267.64586523 -11.7628324 263.91940776 -11.72167969 260.19287109 C-12.37539551 260.00821289 -13.02911133 259.82355469 -13.70263672 259.63330078 C-19.56007191 257.93571231 -24.83451787 255.84408438 -30.27636719 253.08349609 C-33.14807078 252.0375721 -33.91255527 252.09972186 -36.72167969 253.19287109 C-39.07673742 255.15013226 -39.07673742 255.15013226 -41.41699219 257.63037109 C-42.29742188 258.52498047 -43.17785156 259.41958984 -44.08496094 260.34130859 C-44.99632812 261.28232422 -45.90769531 262.22333984 -46.84667969 263.19287109 C-48.65967817 265.04909675 -50.47468066 266.90336786 -52.29199219 268.75537109 C-53.4949292 269.99480469 -53.4949292 269.99480469 -54.72216797 271.25927734 C-57.45761761 273.90454732 -58.47967253 274.1594908 -62.34667969 274.69287109 C-71.82091657 274.46087039 -80.88145988 261.18463702 -87.2331543 254.81176758 C-89.17545233 252.86405307 -91.12311109 250.92181179 -93.07128906 248.97998047 C-94.30793844 247.74267126 -95.54427811 246.50505241 -96.78027344 245.26708984 C-97.65358559 244.39681404 -97.65358559 244.39681404 -98.54454041 243.50895691 C-103.5103137 238.51390854 -103.5103137 238.51390854 -104.22167969 234.06787109 C-103.69520036 229.98765629 -103.3418367 229.35138605 -100.71777344 226.48193359 C-100.08274902 225.78600098 -99.44772461 225.09006836 -98.79345703 224.37304688 C-95.35096312 220.75043662 -91.83882759 217.20524047 -88.28417969 213.69287109 C-87.55263672 212.96583984 -86.82109375 212.23880859 -86.06738281 211.48974609 C-84.28778144 209.72177611 -82.50587051 207.95620732 -80.72167969 206.19287109 C-82.36112961 201.0210798 -84.42920768 196.10848443 -86.59863281 191.14013672 C-87.74168517 188.50912095 -88.81384478 185.9163758 -89.72167969 183.19287109 C-90.68992676 183.18876221 -91.65817383 183.18465332 -92.65576172 183.18041992 C-96.26811039 183.15855217 -99.87938156 183.10418596 -103.49121094 183.0402832 C-105.05067573 183.01716925 -106.61029517 183.00272299 -108.16992188 182.99731445 C-110.41991801 182.98797539 -112.66750446 182.94688597 -114.91699219 182.89990234 C-115.60785919 182.90383499 -116.2987262 182.90776764 -117.01052856 182.91181946 C-122.61036577 182.74521407 -124.95228 181.06270709 -128.72167969 177.19287109 C-129.68210055 174.31160852 -129.86391295 172.4312419 -129.89868164 169.43359375 C-129.91151688 168.46894196 -129.92435211 167.50429016 -129.93757629 166.51040649 C-129.94496323 165.46976044 -129.95235016 164.42911438 -129.95996094 163.35693359 C-129.96803268 162.2854306 -129.97610443 161.21392761 -129.98442078 160.10995483 C-129.99825445 157.84203711 -130.00897981 155.57409862 -130.0168457 153.30615234 C-130.03407815 149.83830423 -130.077974 146.37140462 -130.12207031 142.90380859 C-130.13219565 140.7006906 -130.14071225 138.49756451 -130.14746094 136.29443359 C-130.17372307 134.7395372 -130.17372307 134.7395372 -130.20051575 133.15322876 C-130.17882901 125.95569693 -130.17882901 125.95569693 -127.88256836 122.12402344 C-123.65008695 118.34152113 -120.67403961 117.86816463 -115.20996094 117.77880859 C-114.4817363 117.75944244 -113.75351166 117.74007629 -113.0032196 117.72012329 C-110.68032494 117.66040733 -108.3573805 117.61397492 -106.03417969 117.56787109 C-104.45798636 117.52968388 -102.88181374 117.49063171 -101.30566406 117.45068359 C-97.44450434 117.35471262 -93.58324693 117.2706526 -89.72167969 117.19287109 C-89.32335937 116.17966797 -88.92503906 115.16646484 -88.51464844 114.12255859 C-87.9796329 112.77094039 -87.44446873 111.41938101 -86.90917969 110.06787109 C-86.64814453 109.40271484 -86.38710938 108.73755859 -86.11816406 108.05224609 C-84.85480173 104.87044465 -83.58302058 101.946432 -81.89746094 98.95068359 C-80.45821043 96.34786406 -80.45821043 96.34786406 -81.25073242 94.11132812 C-83.09481118 91.70622092 -85.09047272 89.6194934 -87.25683594 87.49755859 C-88.14822266 86.61712891 -89.03960938 85.73669922 -89.95800781 84.82958984 C-90.89064453 83.91822266 -91.82328125 83.00685547 -92.78417969 82.06787109 C-94.63140136 80.25497495 -96.47656389 78.43997751 -98.31933594 76.62255859 C-99.54922241 75.41962158 -99.54922241 75.41962158 -100.80395508 74.19238281 C-103.23328899 71.65944268 -103.66176936 70.56731065 -104.22167969 67.06787109 C-103.71135406 63.11284748 -103.58012261 62.61209151 -101.08886719 59.88818359 C-100.45239258 59.19225098 -99.81591797 58.49631836 -99.16015625 57.77929688 C-98.35545898 56.92577637 -97.55076172 56.07225586 -96.72167969 55.19287109 C-95.97694397 54.39668365 -95.97694397 54.39668365 -95.21716309 53.58441162 C-91.620556 49.74638478 -87.97659557 45.95853948 -84.29785156 42.19921875 C-82.99162277 40.85605206 -81.69444014 39.50403129 -80.40625 38.14355469 C-78.52495058 36.15879811 -76.61568363 34.20515599 -74.69824219 32.25537109 C-74.13231354 31.64612793 -73.56638489 31.03688477 -72.98330688 30.40917969 C-69.78015808 27.22067458 -67.6090661 25.80206797 -63.01220703 25.65380859 C-56.54250758 25.87506505 -53.19901564 30.58834892 -48.99072266 35.01269531 C-47.68509674 36.37978578 -46.37405138 37.74171752 -45.05810547 39.09887695 C-43.7190357 40.48430535 -42.39537757 41.88481321 -41.08837891 43.30053711 C-37.76211276 47.04602169 -37.76211276 47.04602169 -33.20214844 48.31787109 C-32.38359375 47.94662109 -31.56503906 47.57537109 -30.72167969 47.19287109 C-29.60792969 46.73912109 -28.49417969 46.28537109 -27.34667969 45.81787109 C-26.15042969 45.28162109 -24.95417969 44.74537109 -23.72167969 44.19287109 C-19.68441548 42.383063 -16.06595972 40.97869649 -11.72167969 40.19287109 C-11.71233398 39.18909424 -11.70298828 38.18531738 -11.69335938 37.15112305 C-11.65337738 33.41402399 -11.58759713 29.67774112 -11.51416016 25.94116211 C-11.48599783 24.32636021 -11.46475969 22.71142167 -11.45068359 21.09643555 C-11.4291871 18.76979872 -11.38250758 16.44479632 -11.33105469 14.11865234 C-11.32982605 13.40075027 -11.32859741 12.68284821 -11.32733154 11.94319153 C-11.18706772 7.10383904 -10.15742015 4.59605482 -6.72167969 1.19287109 C-4.30017352 -0.01788199 -2.70626548 0.04020266 0 0 Z " fill="#72CB14" transform="translate(940.7216796875,553.80712890625)"/>
<path d="M0 0 C1.58722366 -0.01418472 1.58722366 -0.01418472 3.20651245 -0.02865601 C4.90663986 -0.01954697 4.90663986 -0.01954697 6.64111328 -0.01025391 C7.81602325 -0.01312408 8.99093323 -0.01599426 10.20144653 -0.01895142 C12.6844328 -0.02099106 15.16743518 -0.01546824 17.65039062 -0.00292969 C21.44063513 0.01309569 25.22980859 -0.002768 29.02001953 -0.02197266 C31.43538646 -0.01998965 33.85075272 -0.01614478 36.26611328 -0.01025391 C37.39548309 -0.0163266 38.52485291 -0.02239929 39.68844604 -0.02865601 C45.75652687 0.02525213 50.25535838 0.39624869 55.58642578 3.38818359 C58.54139597 6.4384754 58.9819311 9.64958741 59.39892578 13.76318359 C59.30066773 17.26304197 59.15738518 18.79712831 56.69970703 21.34130859 C54.9791871 22.49732512 53.22307621 23.60145372 51.44189453 24.66162109 C39.40706894 31.93849238 27.96674089 45.09398865 23.30126953 58.38427734 C22.20902339 61.44614768 20.8667194 64.40083181 19.58642578 67.38818359 C14.92185571 78.45783496 14.14569304 89.52583075 13.58642578 101.38818359 C12.94318359 101.47455078 12.29994141 101.56091797 11.63720703 101.64990234 C-1.17977843 103.64284302 -11.38807881 108.1813375 -21.41357422 116.38818359 C-22.21794922 117.02884766 -23.02232422 117.66951172 -23.85107422 118.32958984 C-29.46736461 123.02564346 -33.54161631 128.19693261 -37.41357422 134.38818359 C-37.87634766 135.10748047 -38.33912109 135.82677734 -38.81591797 136.56787109 C-40.15741251 138.79418119 -41.30942139 141.03519585 -42.41357422 143.38818359 C-42.80802734 144.22607422 -43.20248047 145.06396484 -43.60888672 145.92724609 C-48.84215737 159.50447276 -48.30802999 177.49747632 -44.41357422 191.38818359 C-44.16478516 192.30986328 -43.91599609 193.23154297 -43.65966797 194.18115234 C-37.52962195 212.3343804 -24.91093011 225.20656447 -8.41357422 234.38818359 C-1.34492436 237.60969509 6.09038652 239.34380925 13.58642578 241.38818359 C13.58642578 274.38818359 13.58642578 307.38818359 13.58642578 341.38818359 C6.98642578 341.38818359 0.38642578 341.38818359 -6.41357422 341.38818359 C-12.70271344 335.09904437 -13.6978071 332.74111711 -13.82763672 324.12255859 C-13.84700287 323.32916077 -13.86636902 322.53576294 -13.88632202 321.71832275 C-13.94595783 319.19171803 -13.99243865 316.66506734 -14.03857422 314.13818359 C-14.07676877 312.42201822 -14.11582137 310.70587172 -14.15576172 308.98974609 C-14.25164608 304.78937904 -14.33573589 300.58892225 -14.41357422 296.38818359 C-15.83162354 295.89789673 -15.83162354 295.89789673 -17.27832031 295.39770508 C-18.5396294 294.95595357 -19.80085548 294.51396501 -21.06201172 294.07177734 C-22.29612793 293.64179443 -23.53024414 293.21181152 -24.80175781 292.76879883 C-28.87555125 291.21159308 -32.57117053 289.30959053 -36.32763672 287.11083984 C-38.37405217 286.1568269 -38.37405217 286.1568269 -40.2434082 287.05029297 C-42.98430601 288.74003534 -44.97646394 290.76306671 -47.22216797 293.07177734 C-48.59018555 294.46299805 -48.59018555 294.46299805 -49.98583984 295.88232422 C-51.41976936 297.35354326 -52.85188259 298.82651511 -54.28393555 300.29956055 C-55.67578425 301.72776618 -57.07391459 303.14984148 -58.47216797 304.57177734 C-59.30031006 305.42312256 -60.12845215 306.27446777 -60.98168945 307.15161133 C-65.08389399 310.9243546 -68.5627057 313.15791618 -74.32286072 312.93034363 C-76.93974864 312.251737 -78.19201107 311.16360523 -80.17749023 309.33862305 C-81.22104172 308.38386581 -81.22104172 308.38386581 -82.28567505 307.40982056 C-85.69610822 304.16969628 -89.05701428 300.88748106 -92.37841797 297.55615234 C-93.0971962 296.83833084 -93.81597443 296.12050934 -94.55653381 295.38093567 C-96.05934351 293.87880107 -97.56091288 292.37542462 -99.0612793 290.87084961 C-101.36572182 288.56100164 -103.67551811 286.25660268 -105.98583984 283.95263672 C-107.45035371 282.48746287 -108.9145578 281.0219793 -110.37841797 279.55615234 C-111.06999496 278.86659958 -111.76157196 278.17704681 -112.47410583 277.46659851 C-113.10889359 276.8286586 -113.74368134 276.19071869 -114.39770508 275.53344727 C-114.95759628 274.97276047 -115.51748749 274.41207367 -116.09434509 273.83439636 C-118.65249621 271.030008 -118.88149779 268.32121813 -118.80834961 264.57519531 C-117.33987946 256.44003416 -107.61221213 249.35845875 -102.03857422 243.88818359 C-100.64832031 242.51146484 -100.64832031 242.51146484 -99.22998047 241.10693359 C-96.96236312 238.86269374 -94.6901891 236.62328937 -92.41357422 234.38818359 C-94.26413892 228.70711416 -96.60969388 223.36349886 -99.07373047 217.92333984 C-100.4256768 214.35625113 -100.93513678 211.1570359 -101.41357422 207.38818359 C-103.10099731 207.41174927 -103.10099731 207.41174927 -104.82250977 207.43579102 C-109.00635587 207.49019575 -113.19017084 207.52457196 -117.37426758 207.55297852 C-119.18324039 207.56804114 -120.99217682 207.58849536 -122.80102539 207.61450195 C-125.40503936 207.65099679 -128.00856942 207.66793516 -130.61279297 207.68115234 C-131.41819016 207.6966362 -132.22358734 207.71212006 -133.0533905 207.72807312 C-137.6754049 207.72945042 -140.68318151 207.41041952 -144.41357422 204.38818359 C-147.36991173 201.16967782 -147.79149246 199.017658 -147.80175781 194.68920898 C-147.81121429 193.54444595 -147.82067078 192.39968292 -147.83041382 191.2202301 C-147.82434113 189.98788132 -147.81826843 188.75553253 -147.81201172 187.48583984 C-147.8148819 186.2159874 -147.81775208 184.94613495 -147.82070923 183.63780212 C-147.82275113 180.95182642 -147.81872145 178.26666928 -147.8046875 175.58081055 C-147.78761262 172.14642185 -147.7974286 168.71273743 -147.81540489 165.27837467 C-147.82888526 161.99333822 -147.81943114 158.70838551 -147.81201172 155.42333984 C-147.81808441 154.19301529 -147.8241571 152.96269073 -147.83041382 151.69508362 C-147.82095734 150.54716843 -147.81150085 149.39925323 -147.80175781 148.21655273 C-147.79937103 147.20935684 -147.79698425 146.20216095 -147.79452515 145.16444397 C-147.34665044 141.9004624 -146.34679692 140.03625362 -144.41357422 137.38818359 C-139.55901816 134.09520478 -135.38089481 133.98287965 -129.73388672 134.09521484 C-128.51474075 134.10158211 -128.51474075 134.10158211 -127.27096558 134.108078 C-124.69315463 134.12477556 -122.11614602 134.16240997 -119.53857422 134.20068359 C-117.78337723 134.21574202 -116.02816791 134.22942839 -114.27294922 134.24169922 C-109.98618509 134.27464968 -105.70001536 134.32636907 -101.41357422 134.38818359 C-101.28813232 133.32559326 -101.16269043 132.26300293 -101.03344727 131.16821289 C-100.50657249 127.95529355 -99.91615932 125.77654556 -98.49560547 122.90771484 C-98.12886719 122.13621094 -97.76212891 121.36470703 -97.38427734 120.56982422 C-96.60525399 118.97630765 -95.82130808 117.38518914 -95.03271484 115.79638672 C-94.4884082 114.64493164 -94.4884082 114.64493164 -93.93310547 113.47021484 C-93.59384033 112.78161377 -93.2545752 112.0930127 -92.9050293 111.38354492 C-92.23201575 109.3872858 -92.23201575 109.3872858 -93.01000977 107.44946289 C-94.85338962 104.74226927 -97.00445143 102.61170494 -99.35107422 100.32568359 C-99.83181396 99.85251709 -100.31255371 99.37935059 -100.80786133 98.8918457 C-102.33835664 97.38569523 -103.87510831 95.8861889 -105.41357422 94.38818359 C-107.4402192 92.41483798 -109.46008836 90.434911 -111.47607422 88.45068359 C-112.37455078 87.57541016 -113.27302734 86.70013672 -114.19873047 85.79833984 C-117.24113973 82.48764053 -118.29296526 80.47366426 -118.78857422 76.01318359 C-118.00809036 68.46850626 -111.90192781 63.58149098 -106.76123047 58.47021484 C-106.0240831 57.73115402 -105.28693573 56.9920932 -104.52745056 56.2306366 C-102.97412684 54.67595686 -101.41829449 53.12377999 -99.86010742 51.57397461 C-97.48041377 49.20500359 -95.111593 46.82553667 -92.74365234 44.44482422 C-91.22931935 42.93181263 -89.71436619 41.41942145 -88.19873047 39.90771484 C-87.49337662 39.19831253 -86.78802277 38.48891022 -86.06129456 37.75801086 C-78.00063434 29.77349042 -78.00063434 29.77349042 -72.47607422 28.95068359 C-66.28196638 29.83555614 -62.02535808 34.48862556 -57.79638672 38.81005859 C-57.29436737 39.31490784 -56.79234802 39.81975708 -56.27511597 40.33990479 C-54.69146007 41.93464946 -53.11494835 43.53624404 -51.53857422 45.13818359 C-50.45831203 46.22849021 -49.37758702 47.31833849 -48.29638672 48.40771484 C-45.6634147 51.06259693 -43.0367976 53.72366462 -40.41357422 56.38818359 C-37.05275732 55.06527175 -33.86233772 53.62846641 -30.66357422 51.95068359 C-25.23768383 49.20935183 -19.58229759 46.38818359 -13.41357422 46.38818359 C-13.43713989 44.7007605 -13.43713989 44.7007605 -13.46118164 42.97924805 C-13.51558638 38.79540195 -13.54996258 34.61158698 -13.57836914 30.42749023 C-13.59343177 28.61851743 -13.61388598 26.80958099 -13.63989258 25.00073242 C-13.67638742 22.39671845 -13.69332579 19.79318839 -13.70654297 17.18896484 C-13.72202682 16.38356766 -13.73751068 15.57817047 -13.75346375 14.74836731 C-13.75483445 10.14848979 -13.49225115 7.05586853 -10.41357422 3.38818359 C-6.82683074 0.84957844 -4.37699419 0.01126854 0 0 Z " fill="#61DF0B" transform="translate(190.41357421875,97.61181640625)"/>
<path d="M0 0 C14.12012485 9.31075347 24.72318046 22.65610027 29.21923828 39.10302734 C32.63450508 57.17393964 29.47620457 73.60063802 20.3125 89.1875 C10.29909842 103.80224586 -4.15613834 112.54769805 -21.375 116.25 C-40.26808936 117.74644482 -54.81655488 115.64631331 -70.375 104.25 C-71.43460938 103.48429688 -71.43460938 103.48429688 -72.515625 102.703125 C-84.4892557 93.18078877 -91.90879163 78.13473652 -94.375 63.25 C-96.10319362 44.63047628 -91.95502715 29.21226684 -80.75 14.125 C-60.72215587 -9.86272205 -26.90026268 -14.86156488 0 0 Z " fill="#000100" transform="translate(993.375,649.75)"/>
<path d="M0 0 C0.70666878 0.00176947 1.41333756 0.00353894 2.14142054 0.00536203 C2.88902595 0.0033094 3.63663135 0.00125677 4.40689147 -0.00085807 C6.94409243 -0.00656999 9.48123983 -0.0050657 12.01844615 -0.0036521 C13.84303294 -0.00623334 15.66761917 -0.00924582 17.49220461 -0.0126555 C22.53119221 -0.02075715 27.57016559 -0.02251682 32.60915893 -0.02325296 C38.03396778 -0.02509806 43.45876916 -0.03264265 48.88357371 -0.03938818 C60.75743748 -0.05299479 72.63129787 -0.05899993 84.50516814 -0.06339884 C91.91366541 -0.06615751 99.32216137 -0.07039418 106.73065776 -0.07490301 C127.22610345 -0.08709905 147.72154808 -0.09739749 168.21699733 -0.1007781 C169.52985618 -0.10099767 170.84271503 -0.10121724 172.19535749 -0.10144345 C173.51143405 -0.10166173 174.82751061 -0.10188001 176.18346828 -0.1021049 C178.85052715 -0.10254837 181.51758601 -0.10299458 184.18464488 -0.10344458 C184.84592351 -0.10355397 185.50720214 -0.10366336 186.18851952 -0.10377606 C207.63320473 -0.10740715 229.07785615 -0.12332796 250.52252841 -0.14663494 C273.18251175 -0.17121784 295.84247576 -0.18494351 318.50247282 -0.18614602 C330.85965576 -0.18706416 343.21679446 -0.19285129 355.57396525 -0.21096563 C366.09568241 -0.22633453 376.61734167 -0.23150615 387.13906792 -0.22322753 C392.51074474 -0.21930952 397.88230486 -0.2203065 403.25396746 -0.23428488 C408.1677474 -0.24695515 413.08132211 -0.24588715 417.99510148 -0.23369417 C419.77644276 -0.23172517 421.55779824 -0.23487058 423.33911952 -0.24353853 C425.75396605 -0.25454883 428.16807776 -0.247202 430.58290309 -0.235147 C431.2802072 -0.24274219 431.97751132 -0.25033739 432.69594586 -0.25816274 C437.99365336 -0.20077136 441.09732223 1.2593384 444.9263441 4.8242898 C446.6728175 8.22531695 446.78222065 11.44235677 446.1138441 15.1367898 C443.9509476 18.69011976 441.97682755 20.66571793 438.1138441 22.1367898 C435.61755365 22.32858427 433.23379341 22.41232285 430.73832816 22.39964533 C429.98954879 22.4037506 429.24076942 22.40785586 428.46929976 22.41208553 C425.94610121 22.42344514 423.42312031 22.42050872 420.89990062 22.41767359 C419.07827292 22.42283974 417.25664749 22.42886574 415.43502522 22.43568039 C410.41806989 22.45184026 405.40117175 22.45540063 400.38419348 22.45687532 C394.97779243 22.46057295 389.57142119 22.47566578 384.16503733 22.48914576 C372.33873921 22.51632663 360.51245463 22.52836378 348.68613046 22.53716707 C341.3049033 22.54268901 333.92368138 22.55116313 326.54245776 22.56017542 C306.11466601 22.58456164 285.68687847 22.60516073 265.25907248 22.6119256 C263.95128973 22.61236473 262.64350697 22.61280387 261.29609444 22.61325631 C259.98514804 22.61369286 258.67420165 22.61412942 257.3235296 22.6145792 C254.66696451 22.61546614 252.01039942 22.61635927 249.35383433 22.61725855 C248.03608078 22.61770141 246.71832723 22.61814427 245.36064176 22.61860055 C224.00015562 22.62649946 202.63981606 22.66141604 181.2793813 22.70797759 C159.36036487 22.75537201 137.44141691 22.78032778 115.5223484 22.78266144 C103.21092054 22.7844967 90.89967035 22.79604553 78.58829135 22.83230066 C68.10654663 22.86305863 57.62503448 22.87336976 47.14325323 22.85682446 C41.793454 22.84899585 36.44412345 22.85094536 31.09438151 22.87893915 C26.19829766 22.90432527 21.30303682 22.90210498 16.40695486 22.87775773 C14.63441007 22.87382758 12.8618079 22.88007547 11.08934387 22.89744645 C-3.81468417 23.03428233 -3.81468417 23.03428233 -8.43212587 19.25320673 C-11.59688497 15.23422216 -11.79310797 13.39020468 -11.46037465 8.4805398 C-10.59718598 4.95732073 -8.7201339 3.27955365 -5.8861559 1.1367898 C-4.22525155 -0.52411455 -2.21908006 0.01052357 0 0 Z " fill="#7DC616" transform="translate(494.8861559033394,65.86321020126343)"/>
<path d="M0 0 C3.60684163 2.14875671 5.44051162 4.14945607 7 8 C7.25299966 10.47005635 7.25299966 10.47005635 7.25726891 13.29840565 C7.2637178 14.37842218 7.27016669 15.45843872 7.276811 16.57118303 C7.2737138 17.75705985 7.2706166 18.94293666 7.26742554 20.16474915 C7.27195665 21.42504556 7.27648776 22.68534198 7.28115618 23.9838292 C7.29340546 27.48439009 7.29312346 30.98485554 7.29076743 34.48543298 C7.29035975 38.25991632 7.3013938 42.03436886 7.31088257 45.80883789 C7.32750431 53.20481249 7.33299265 60.60075522 7.33410732 67.99674693 C7.33505728 74.00822905 7.33916496 80.01970064 7.34550858 86.03117943 C7.36312452 103.07138881 7.37234694 120.11157299 7.37084763 137.15179155 C7.37076772 138.07067251 7.3706878 138.98955346 7.37060547 139.9362793 C7.37052371 140.85628108 7.37044195 141.77628287 7.37035771 142.7241635 C7.3695448 157.63426692 7.38868272 172.54426933 7.4168822 187.45434354 C7.44560261 202.76052915 7.45942295 218.06666548 7.45769465 233.37287873 C7.45703044 241.96749936 7.46253639 250.56201411 7.48405075 259.15661049 C7.50225152 266.47445689 7.50661906 273.79214941 7.4930319 281.11000863 C7.48649648 284.84357765 7.48640538 288.57685136 7.5037384 292.31039238 C7.52233885 296.35858565 7.50992965 300.40609361 7.49447632 304.45429993 C7.50476344 305.63348458 7.51505057 306.81266924 7.52564943 308.02758676 C7.47030349 314.57359589 6.93522518 318.68781959 3 324 C0.05048604 326.42281504 -3.27453679 326.42145149 -7.03515625 326.31640625 C-10.24330151 325.79978644 -11.84118317 324.34930067 -14 322 C-15.74148841 318.40562599 -16.25178165 315.53528587 -16.26006222 311.56013584 C-16.26712781 310.47402816 -16.2741934 309.38792049 -16.2814731 308.26890045 C-16.27905802 307.08136341 -16.27664293 305.89382636 -16.27415466 304.67030334 C-16.27939134 303.40436338 -16.28462802 302.13842342 -16.29002339 300.83412164 C-16.3041976 297.32249287 -16.30586679 293.81095264 -16.30542648 290.29929936 C-16.30707515 286.51121576 -16.32014241 282.72316858 -16.33161926 278.93510437 C-16.35446219 270.65427047 -16.36238873 262.3734622 -16.36744571 254.09260106 C-16.37070278 248.92267109 -16.37722522 243.75274856 -16.3844471 238.5828228 C-16.40401012 224.26964209 -16.42041673 209.95646829 -16.42332363 195.64327335 C-16.4235112 194.72749884 -16.42369877 193.81172433 -16.42389202 192.86819908 C-16.42425828 191.0117079 -16.42462197 189.15521673 -16.42498314 187.29872555 C-16.42516595 186.37716028 -16.42534876 185.45559501 -16.42553711 184.50610352 C-16.42571766 183.58341431 -16.42589821 182.6607251 -16.42608423 181.71007561 C-16.42962779 166.7508401 -16.45666281 151.79174837 -16.494035 136.83256275 C-16.53209445 121.47549924 -16.55148092 106.11850713 -16.55178314 90.76139539 C-16.55236816 82.13828838 -16.56088869 73.51535301 -16.58978081 64.89229012 C-16.61426285 57.55172758 -16.62159902 50.2113993 -16.60653328 42.870807 C-16.59935188 39.12513962 -16.60027406 35.37993513 -16.62294388 31.63431931 C-16.6472787 27.57476407 -16.63293334 23.5162673 -16.61473083 19.4566803 C-16.6279308 18.27137397 -16.64113077 17.08606765 -16.65473074 15.86484295 C-16.56347135 6.98480877 -16.56347135 6.98480877 -13.58657932 3.28395748 C-9.2675619 -0.52974816 -5.61571715 -0.70925147 0 0 Z " fill="#5CFE00" transform="translate(177,520)"/>
<path d="M0 0 C1.05214937 -0.00768229 2.10429874 -0.01536458 3.18833143 -0.02327967 C4.34308066 -0.0215467 5.49782989 -0.01981374 6.68757153 -0.01802826 C8.52901352 -0.02694163 8.52901352 -0.02694163 10.40765637 -0.03603506 C13.81704029 -0.05039721 17.22622267 -0.05575377 20.63562238 -0.05723 C24.31195322 -0.06093233 27.98824042 -0.07602754 31.66454601 -0.08950043 C39.70377288 -0.1166622 47.7429798 -0.1287155 55.78224492 -0.13752174 C60.80158648 -0.14304696 65.82092034 -0.15152169 70.84025669 -0.16053009 C84.73648406 -0.18491392 98.63270525 -0.20551342 112.52895355 -0.21228027 C113.41830312 -0.21271941 114.30765269 -0.21315854 115.22395224 -0.21361098 C116.11543097 -0.21404753 117.0069097 -0.21448409 117.92540294 -0.21493387 C119.73188325 -0.21582081 121.53836356 -0.21671393 123.34484386 -0.21761322 C124.24092073 -0.21805608 125.1369976 -0.21849894 126.06022831 -0.21895522 C140.58238945 -0.22685257 155.10434996 -0.26176535 169.62643359 -0.30833226 C184.53485564 -0.35575235 199.44317699 -0.38068362 214.35167569 -0.38301611 C222.72279868 -0.38484995 231.0936602 -0.39636265 239.46471119 -0.43265533 C246.59229814 -0.4634481 253.71954281 -0.47370411 260.84718362 -0.45717913 C264.48369011 -0.44936251 268.11950724 -0.45123969 271.75592899 -0.47929382 C275.69909871 -0.50943624 279.64129707 -0.49304967 283.58454418 -0.47212982 C284.73260125 -0.48824263 285.88065832 -0.50435544 287.06350499 -0.52095652 C293.39758231 -0.44219866 297.06973989 0.22763505 301.6280095 4.78088236 C304.36399596 8.16392613 304.18162756 11.0017246 303.82653332 15.26285553 C301.70786219 19.27319732 300.05358169 21.62093239 295.82653332 23.26285553 C293.4002105 23.51700586 293.4002105 23.51700586 290.63465595 23.52291775 C289.05028176 23.53351613 289.05028176 23.53351613 287.4339 23.54432863 C286.2745777 23.54191355 285.1152554 23.53949846 283.92080212 23.53701019 C282.688385 23.54224687 281.45596788 23.54748355 280.18620479 23.55287892 C276.76348499 23.56530218 273.34097048 23.56872202 269.91824222 23.56828201 C266.22761926 23.56992928 262.53703381 23.582994 258.84643078 23.59447479 C250.77627477 23.61732979 242.70614504 23.62524574 234.63596106 23.63030124 C229.59786652 23.63355728 224.55977963 23.64007915 219.52168941 23.64730263 C205.57484527 23.66686819 191.62800824 23.68327299 177.68114948 23.68617916 C176.78858074 23.68636673 175.896012 23.6865543 174.97639572 23.68674755 C173.16691995 23.68711381 171.35744418 23.68747751 169.5479684 23.68783867 C168.64973369 23.68802148 167.75149898 23.68820429 166.82604504 23.68839264 C165.92671524 23.68857319 165.02738545 23.68875374 164.10080324 23.68893976 C149.52302751 23.69248266 134.94539937 23.71951247 120.36767484 23.75689053 C105.4038871 23.79495177 90.44017265 23.81433647 75.47633541 23.81463867 C67.07342357 23.81522369 58.67068787 23.82374429 50.26782131 23.85263634 C43.11388154 23.87712094 35.96018216 23.88445292 28.80621184 23.86938881 C25.15573446 23.86220812 21.50573203 23.86312639 17.85530758 23.88579941 C13.89873701 23.9101387 9.94284778 23.89578611 5.9862318 23.87758636 C4.83137095 23.89078633 3.67651009 23.9039863 2.48665345 23.91758627 C-6.17118675 23.82632611 -6.17118675 23.82632611 -9.87094784 20.84943485 C-13.32113927 16.97359521 -13.51537608 14.56359047 -13.45862293 9.52066803 C-13.03280041 6.14908697 -11.63869494 4.5226481 -9.17346668 2.26285553 C-6.03093365 0.33910588 -3.66104214 0.01004007 0 0 Z " fill="#000200" transform="translate(457.1734666824341,712.7371444702148)"/>
<path d="M0 0 C1.04579928 -0.00644889 2.09159856 -0.01289778 3.16908872 -0.0195421 C4.31673818 -0.01644489 5.46438763 -0.01334769 6.64681435 -0.01015663 C7.86698081 -0.01468774 9.08714727 -0.01921886 10.34428847 -0.02388728 C13.73280818 -0.03437104 17.12111595 -0.03585483 20.50963688 -0.03349853 C24.16344606 -0.03309079 27.81722343 -0.04412532 31.47101784 -0.05361366 C38.63003293 -0.07023385 45.78901509 -0.07572366 52.94804786 -0.07683842 C58.76646089 -0.07778838 64.58486304 -0.08189606 70.40327263 -0.08823967 C86.89517257 -0.1058546 103.38704647 -0.11507811 119.87895589 -0.11357872 C120.76822961 -0.11349881 121.65750333 -0.1134189 122.57372475 -0.11333656 C123.90926167 -0.11321392 123.90926167 -0.11321392 125.27177913 -0.1130888 C139.70403659 -0.11227575 154.13618972 -0.13141747 168.568417 -0.1596133 C183.38304263 -0.18832812 198.19761735 -0.20215438 213.01227152 -0.20042574 C221.33131733 -0.19976137 229.65025376 -0.20527428 237.96927452 -0.22678185 C245.05182721 -0.2449752 252.13422093 -0.24935623 259.21678685 -0.235763 C262.8307448 -0.22922402 266.44439762 -0.22914924 270.05832672 -0.2464695 C273.97541581 -0.26504971 277.8920572 -0.25266991 281.80916786 -0.23720741 C283.52394988 -0.2526381 283.52394988 -0.2526381 285.27337396 -0.26838052 C292.79635744 -0.20254574 296.29408681 0.81507724 301.72997475 6.06976891 C303.40918485 9.33489965 303.29219053 11.63462385 302.85497475 15.25726891 C300.82831237 18.96116912 299.37452959 20.91089901 295.85497475 23.25726891 C293.5388757 23.51141924 293.5388757 23.51141924 290.75211716 23.51733112 C289.1593543 23.52792951 289.1593543 23.52792951 287.53441441 23.53874201 C286.36371525 23.53632692 285.19301609 23.53391184 283.9868412 23.53142357 C282.74640584 23.53666025 281.50597048 23.54189693 280.22794616 23.54729229 C276.77823384 23.55972893 273.32872506 23.56313504 269.87900424 23.56269538 C266.16111615 23.564341 262.44326541 23.57740264 258.72539711 23.58888817 C250.59326754 23.61175647 242.46116404 23.61966061 234.32900667 23.62471461 C229.25323567 23.62796925 224.17747226 23.63449027 219.10170555 23.641716 C205.05367527 23.66128365 191.00565206 23.67768712 176.95760727 23.68059254 C176.05831662 23.68078011 175.15902597 23.68096768 174.23248409 23.68116093 C172.40933538 23.68152719 170.58618666 23.68189088 168.76303793 23.68225204 C167.40548269 23.68252626 167.40548269 23.68252626 166.02050209 23.68280602 C165.11436326 23.68298656 164.20822442 23.68316711 163.27462684 23.68335313 C148.58618151 23.6868961 133.89788267 23.71392534 119.20948817 23.7513039 C104.13612576 23.78935583 89.06283611 23.80874978 73.98942459 23.80905205 C65.5233731 23.80963729 57.05749638 23.81817237 48.59148979 23.84704971 C41.38369895 23.87152194 34.17614663 23.87887475 26.96832551 23.86380219 C23.28962663 23.85661627 19.61139911 23.85756206 15.93275261 23.88021278 C11.94731592 23.90451783 7.96255722 23.89021406 3.97707558 23.87199974 C2.81083786 23.88519971 1.64460015 23.89839968 0.44302189 23.91199964 C-8.25995031 23.82074455 -8.25995031 23.82074455 -11.34015656 20.84384823 C-14.47452688 16.35194393 -14.98870737 12.67558296 -14.14502525 7.25726891 C-10.21557315 2.12715088 -6.38442834 0.00995518 0 0 Z " fill="#010500" transform="translate(458.1450252532959,324.74273109436035)"/>
<path d="M0 0 C1.05226737 -0.00445784 2.10453474 -0.00891569 3.18868899 -0.01350862 C4.93641097 -0.01323207 4.93641097 -0.01323207 6.71944046 -0.01294994 C7.95014873 -0.01662663 9.180857 -0.02030332 10.44885945 -0.02409142 C13.87604578 -0.03323084 17.30318417 -0.0378307 20.73037815 -0.04048073 C24.42238805 -0.0443792 28.11438402 -0.05395786 31.80638504 -0.0626936 C40.72816035 -0.08247115 49.64993683 -0.09252593 58.57172859 -0.10142139 C62.77092238 -0.10580224 66.97011491 -0.11116958 71.16930771 -0.11641026 C85.12464893 -0.13342395 99.07998935 -0.1479187 113.03533936 -0.155159 C116.6581688 -0.15706896 120.28099824 -0.15898928 123.90382767 -0.16094494 C124.80428846 -0.16142868 125.70474926 -0.16191242 126.63249674 -0.16241082 C141.22330565 -0.17071325 155.81403263 -0.19605311 170.40480575 -0.22852562 C185.377564 -0.26157715 200.3502806 -0.27960604 215.32307553 -0.28280324 C223.73270194 -0.28497012 232.14220888 -0.29374477 240.55179977 -0.31926441 C247.71307743 -0.34094544 254.87420662 -0.3490347 262.03551337 -0.33929763 C265.68996753 -0.3347453 269.34411518 -0.33669279 272.99852753 -0.35605907 C276.95950028 -0.37686883 280.92004823 -0.36672983 284.88106155 -0.35352612 C286.6153992 -0.36997998 286.6153992 -0.36997998 288.38477397 -0.38676625 C294.57309933 -0.33679784 298.37156337 -0.0682853 303.05421829 4.13422108 C305.40664176 7.34207126 305.52263919 10.23071359 305.05421829 14.13422108 C302.70728476 18.56731775 300.50751982 20.89852627 296.05421829 23.13422108 C293.52293307 23.51026857 293.52293307 23.51026857 290.78614521 23.5117445 C289.73835488 23.51956774 288.69056456 23.52739098 287.61102301 23.53545129 C286.46628639 23.52875913 285.32154978 23.52206696 284.14212418 23.515172 C282.92110329 23.51985198 281.70008241 23.52453195 280.44206089 23.52935374 C277.05569439 23.53925215 273.66982677 23.53568614 270.28349054 23.52639508 C266.63037863 23.51961157 262.97731053 23.53008239 259.32420731 23.53833485 C252.16864631 23.55168225 245.01317965 23.54878986 237.85761494 23.54009692 C232.04208313 23.53332422 226.22657779 23.53240187 220.41104317 23.53566837 C219.58361994 23.53612807 218.75619672 23.53658777 217.90370006 23.5370614 C216.22283911 23.53802057 214.54197817 23.53899321 212.86111724 23.53997917 C197.09528723 23.54853616 181.32950952 23.53869438 165.56368809 23.52257808 C152.0353588 23.50917709 138.50710674 23.51150057 124.97877884 23.52533436 C109.27125668 23.54138901 93.5637804 23.54770954 77.85625118 23.53849757 C76.18123719 23.53754192 74.50622319 23.5365988 72.83120918 23.53566837 C71.59498454 23.53497413 71.59498454 23.53497413 70.33378567 23.53426587 C64.52563033 23.53167545 58.71750409 23.53604815 52.90935326 23.54310703 C45.83049609 23.55152106 38.75173873 23.54924406 31.672893 23.5332648 C28.06100881 23.52538036 24.44929102 23.5222933 20.83740807 23.53221226 C16.92260996 23.54280045 13.00808433 23.5301576 9.09329605 23.515172 C7.95079016 23.52186417 6.80828426 23.52855633 5.63115698 23.53545129 C0.04734413 23.49386371 -4.17284175 23.38967521 -8.94578171 20.13422108 C-11.84866508 16.74752381 -12.52776418 13.60154028 -12.37546921 9.13422108 C-11.59973678 5.52353923 -9.55525989 3.68156883 -6.94578171 1.13422108 C-4.45488764 -0.11122596 -2.78798339 0.00545932 0 0 Z " fill="#010500" transform="translate(455.9457817077637,781.8657789230347)"/>
<path d="M0 0 C3.63467079 1.62400184 4.77408696 2.66113044 7 6 C7.25415033 8.37265664 7.25415033 8.37265664 7.26006222 11.24062061 C7.2706606 12.87948426 7.2706606 12.87948426 7.2814731 14.55145627 C7.27905802 15.75649185 7.27664293 16.96152742 7.27415466 18.20307922 C7.28200968 20.11780188 7.28200968 20.11780188 7.29002339 22.07120579 C7.30423445 25.62155766 7.30586609 29.17182212 7.30542648 32.72219837 C7.30707196 36.54849052 7.32013343 40.37474637 7.33161926 44.20101929 C7.35448931 52.57081174 7.36239201 60.94057888 7.36744571 69.31039834 C7.37070038 74.53492566 7.37722146 79.75944559 7.3844471 84.98396873 C7.40401559 99.44461614 7.42041835 113.90525666 7.42332363 128.36591816 C7.42360499 129.75453954 7.42360499 129.75453954 7.42389202 131.17121388 C7.42425828 133.04799346 7.42462198 134.92477305 7.42498314 136.80155263 C7.42516595 137.7332097 7.42534876 138.66486676 7.42553711 139.62475586 C7.42571766 140.55754792 7.42589821 141.49033997 7.42608423 142.45139845 C7.42962658 157.56919038 7.45665164 172.68683992 7.494035 187.80458245 C7.53209468 203.31978431 7.55148094 218.83491548 7.55178314 234.35016507 C7.55236824 243.06384507 7.56089377 251.77735524 7.58978081 260.49099159 C7.61426347 267.91028716 7.62159877 275.32935096 7.60653328 282.74867598 C7.59935149 286.53483295 7.60027563 290.32053198 7.62294388 294.10663795 C7.64727694 298.2100872 7.63293395 302.3124892 7.61473083 306.41596985 C7.6279308 307.61431326 7.64113077 308.81265667 7.65473074 310.04731351 C7.56345415 319.02433581 7.56345415 319.02433581 4.64907932 322.72400188 C1.53416687 325.40022785 -0.26073338 325.91630944 -4.3125 326.375 C-9.20301701 325.87765929 -10.57084492 324.42915508 -14 321 C-15.26640546 318.46718908 -15.12886584 316.7161369 -15.13422108 313.8796339 C-15.13867892 312.78843249 -15.14313676 311.69723107 -15.14772969 310.57296294 C-15.14754533 309.3643324 -15.14736097 308.15570187 -15.14717102 306.91044617 C-15.15084771 305.63411326 -15.1545244 304.35778035 -15.1583125 303.04277068 C-15.16834891 299.48824828 -15.17205192 295.93374277 -15.17470181 292.37920821 C-15.17859998 288.55020211 -15.1881786 284.72120945 -15.19691467 280.89221191 C-15.21669227 271.63970098 -15.22674666 262.38718892 -15.23564246 253.13466212 C-15.240023 248.78043068 -15.24539039 244.42620046 -15.25063133 240.07196999 C-15.26764444 225.60278291 -15.28213966 211.1335966 -15.28938007 196.66440105 C-15.29129005 192.90818468 -15.29321037 189.15196831 -15.29516602 185.39575195 C-15.29564976 184.46213208 -15.2961335 183.52851222 -15.2966319 182.56660084 C-15.30493608 167.43516283 -15.33027917 152.30380377 -15.36274669 137.17240026 C-15.39578865 121.64707083 -15.41382621 106.12178156 -15.41702431 90.59641677 C-15.41919201 81.87550926 -15.42797848 73.15471691 -15.45348549 64.43384361 C-15.47515338 57.00830266 -15.48326225 49.58290482 -15.47351871 42.15733584 C-15.46896266 38.36731692 -15.47093537 34.57759353 -15.49028015 30.78761482 C-15.51105694 26.68170172 -15.50096322 22.57644888 -15.48774719 18.47050476 C-15.49871644 17.26856639 -15.50968568 16.06662802 -15.52098733 14.82826728 C-15.45809688 6.77337552 -15.45809688 6.77337552 -13.0945158 2.78309345 C-9.017851 -0.68743387 -5.17485762 -0.51032333 0 0 Z " fill="#71FE00" transform="translate(1036,156)"/>
<path d="M0 0 C0.89994053 -0.00297112 1.79988105 -0.00594224 2.7270925 -0.0090034 C5.76100306 -0.01771709 8.79487429 -0.0192009 11.82879639 -0.02069092 C13.99666936 -0.02531724 16.16454152 -0.03034164 18.33241272 -0.03573608 C24.23540115 -0.04888079 30.13837819 -0.05530917 36.04137897 -0.05974674 C39.72698687 -0.06267438 43.41259162 -0.06677861 47.09819794 -0.07125092 C58.62267742 -0.08493183 70.14714977 -0.09459535 81.67163682 -0.09845281 C94.9875708 -0.10293397 108.3033702 -0.12048209 121.61927533 -0.1494534 C131.90297827 -0.17105294 142.1866523 -0.18115618 152.47037768 -0.18249393 C158.61639263 -0.18354327 164.76231119 -0.18947854 170.90830231 -0.20731354 C176.68994383 -0.2237641 182.47141619 -0.22596433 188.25307274 -0.21717453 C190.37590932 -0.21640252 192.49875488 -0.22076841 194.62156868 -0.23063278 C197.51850424 -0.24330541 200.41483648 -0.2375008 203.31176758 -0.22705078 C204.15282586 -0.23510719 204.99388415 -0.24316359 205.86042905 -0.25146413 C211.62882948 -0.20276361 215.85770811 0.84351322 220.28485107 4.82794189 C221.97281742 8.2976505 222.28543791 11.43126301 221.40985107 15.14044189 C219.329385 18.46155287 216.94624383 21.37224552 213.40985107 23.14044189 C210.53868409 23.24514027 207.69140802 23.28823579 204.81970215 23.28761292 C203.46979136 23.29312795 203.46979136 23.29312795 202.09260964 23.29875439 C199.05870268 23.30982095 196.02482992 23.3136401 192.99090576 23.31744385 C190.82303253 23.32370624 188.65516039 23.33035284 186.48728943 23.33735657 C180.58430443 23.35478685 174.68132754 23.36532379 168.77832317 23.3735621 C165.09271541 23.3787078 161.40711019 23.38478372 157.72150421 23.39107323 C146.19702668 23.41013069 134.67255559 23.42436082 123.14806533 23.4326852 C109.83209553 23.4424616 96.51634177 23.46878934 83.20042682 23.50918609 C72.91672457 23.53931647 62.63307001 23.55415114 52.34932446 23.55746621 C46.20327475 23.55982015 40.05740232 23.56882544 33.91139984 23.59392738 C28.129723 23.61715925 22.34834078 23.62146091 16.56662941 23.611166 C14.44378748 23.61066935 12.32093129 23.61702778 10.19813347 23.63072205 C7.30104522 23.64836647 4.40502284 23.6413713 1.50793457 23.62818909 C0.66687629 23.63915833 -0.174182 23.65012758 -1.0407269 23.66142923 C-6.34958756 23.60306634 -9.39152895 22.68315692 -13.59014893 19.14044189 C-16.27135969 15.11862575 -16.40359227 11.86807798 -15.59014893 7.14044189 C-11.73100844 0.21120451 -7.30259073 -0.00744436 0 0 Z " fill="#000300" transform="translate(499.59014892578125,393.85955810546875)"/>
<path d="M0 0 C3.28933329 1.73874028 6.31178909 3.62357818 8 7 C8.82588315 12.53028082 8.59993377 16.7727133 5.375 21.4375 C4.84390625 22.13246582 4.3128125 22.82743164 3.765625 23.54345703 C2.03626652 25.94954179 0.64059986 28.35255279 -0.74609375 30.96875 C-4.20037037 37.39736426 -7.80914831 43.73085442 -11.4375 50.0625 C-12.1412318 51.2921337 -12.84492568 52.52178909 -13.54858398 53.75146484 C-20.05033466 65.10805123 -26.58937519 76.44308717 -33.13671875 87.7734375 C-35.0203505 91.03524007 -36.90122321 94.29861844 -38.78125 97.5625 C-45.39909168 109.04959095 -52.04487232 120.51945745 -58.73291016 131.96582031 C-62.98982827 139.25622568 -67.22041783 146.56148569 -71.4375 153.875 C-72.36163696 155.47686157 -72.36163696 155.47686157 -73.30444336 157.11108398 C-76.22532806 162.17671411 -79.14191962 167.24473127 -82.04728699 172.3192749 C-83.06250835 174.09184277 -84.07902339 175.86366231 -85.09594727 177.63525391 C-86.3672736 179.85088136 -87.63616121 182.06791074 -88.90209961 184.28662109 C-99.64871561 202.99805997 -99.64871561 202.99805997 -105 206 C-108.61369766 206.66920327 -110.83201887 206.7601147 -113.96875 204.71875 C-118.55985915 200.88028169 -118.55985915 200.88028169 -120 198 C-120.54757999 191.65888847 -119.42131036 187.97487439 -115.9375 182.625 C-115.01099283 181.12755496 -114.08665477 179.62876647 -113.1640625 178.12890625 C-112.65649414 177.31309082 -112.14892578 176.49727539 -111.62597656 175.65673828 C-108.58396573 170.68629355 -105.71088109 165.61755345 -102.8125 160.5625 C-101.5160318 158.31096362 -100.21915154 156.05966448 -98.921875 153.80859375 C-98.27154297 152.67921387 -97.62121094 151.54983398 -96.95117188 150.38623047 C-95.05830863 147.10119378 -93.16257293 143.81783564 -91.265625 140.53515625 C-90.03120385 138.39846416 -88.79682879 136.26174544 -87.5625 134.125 C-86.95253174 133.06925781 -86.34256348 132.01351562 -85.71411133 130.92578125 C-82.37330346 125.13650426 -79.04930118 119.33812586 -75.74609375 113.52734375 C-75.02986707 112.26871715 -74.31363986 111.01009084 -73.59741211 109.75146484 C-72.24215312 107.36945667 -70.89068305 104.98542995 -69.54125977 102.60009766 C-66.03966269 96.44225734 -62.42031622 90.40247319 -58.55444336 84.46582031 C-56.39982664 81.04794236 -54.50267487 77.51033356 -52.59765625 73.94921875 C-50.45523374 69.99438013 -48.20941089 66.1008412 -45.96557617 62.203125 C-43.87513714 58.56148916 -41.85359383 54.89088898 -39.875 51.1875 C-37.59734107 46.96110836 -35.03912419 43.03681477 -32.32421875 39.08203125 C-30.47390173 36.17283074 -29.23124807 33.2149255 -28 30 C-27.34 30 -26.68 30 -26 30 C-25.89300781 29.44957031 -25.78601563 28.89914062 -25.67578125 28.33203125 C-24.29064468 23.5521091 -21.4263854 19.31835174 -19 15 C-18.64550781 14.33097656 -18.29101562 13.66195313 -17.92578125 12.97265625 C-13.62788474 4.97530452 -9.63396192 -0.94760281 0 0 Z " fill="#000500" transform="translate(658,462)"/>
<path d="M0 0 C3.78801485 0.54702699 5.64740071 1.86277802 8.515625 4.36328125 C10.05418369 7.44039863 9.65993065 10.67221905 9.65606689 14.04902649 C9.65903802 14.85166732 9.66200914 15.65430816 9.6650703 16.48127145 C9.67378064 19.18584827 9.67526751 21.89038095 9.67675781 24.5949707 C9.68138434 26.52801611 9.68640878 28.46106059 9.69180298 30.394104 C9.70494507 35.65654981 9.71137548 40.91898284 9.71581364 46.1814425 C9.7187415 49.46702958 9.72284577 52.75261315 9.72731781 56.03819847 C9.74099763 66.31166389 9.75066186 76.5851213 9.7545197 86.85859519 C9.75900152 98.72957176 9.77655319 110.60043324 9.8055203 122.47137481 C9.82711688 131.63914805 9.8372229 140.80688886 9.83856082 149.97468728 C9.83961032 155.45389136 9.84554884 160.93298733 9.86338043 166.41216469 C9.87982609 171.56591585 9.88203368 176.71947724 9.87324142 181.87324524 C9.87246916 183.76590672 9.87683857 185.65857826 9.88669968 187.55121422 C9.89936463 190.1332321 9.89357224 192.71457233 9.88311768 195.29658508 C9.89117408 196.04717345 9.89923048 196.79776182 9.90753102 197.57109529 C9.85558119 203.04961273 8.49654014 206.15379898 4.890625 210.17578125 C1.21228595 212.01495078 -2.44672195 211.59622277 -6.484375 211.36328125 C-6.484375 210.70328125 -6.484375 210.04328125 -6.484375 209.36328125 C-7.3815625 208.99203125 -7.3815625 208.99203125 -8.296875 208.61328125 C-10.95943939 207.09181588 -11.94872516 206.03418564 -13.484375 203.36328125 C-13.77312006 200.66828138 -13.88956464 198.20650393 -13.86532593 195.51295471 C-13.8700059 194.71677213 -13.87468587 193.92058955 -13.87950766 193.10028023 C-13.89148441 190.42939619 -13.88199003 187.75902271 -13.87255859 185.08813477 C-13.87662314 183.17449646 -13.88196436 181.2608605 -13.88848877 179.347229 C-13.902183 174.14682442 -13.89685476 168.94659808 -13.88735151 163.74619031 C-13.87976475 158.30726463 -13.88679789 152.86835437 -13.89151001 147.4294281 C-13.89697089 138.2939886 -13.8897677 129.15862182 -13.87548828 120.02319336 C-13.85916604 109.45879363 -13.86444588 98.89456763 -13.8809675 88.33017212 C-13.8945787 79.26425583 -13.89650366 70.19839185 -13.88865149 61.13246864 C-13.88397235 55.71590861 -13.88335669 50.29943024 -13.89326096 44.88287544 C-13.90192281 39.78981007 -13.89592289 34.69696876 -13.87857819 29.60392761 C-13.87460897 27.73384918 -13.87575481 25.86375191 -13.88236618 23.99368095 C-13.8905547 21.44239595 -13.88029282 18.8918305 -13.86532593 16.34059143 C-13.87201809 15.5991492 -13.87871026 14.85770697 -13.88560522 14.09379679 C-13.82396606 8.68290324 -12.33736796 5.74868345 -9.09765625 1.578125 C-6.2791973 -0.54424966 -3.40237312 -0.09451036 0 0 Z " fill="#030201" transform="translate(860.484375,315.63671875)"/>
<path d="M0 0 C3.24044458 2.56535196 4.69560167 4.086805 6 8 C6.10201628 10.57064483 6.1478098 13.11445701 6.14717102 15.68537903 C6.15084771 16.47591807 6.1545244 17.2664571 6.1583125 18.08095187 C6.1693545 20.73862613 6.17319403 23.3962613 6.17700195 26.05395508 C6.18326614 27.95596949 6.1899129 29.85798267 6.19691467 31.75999451 C6.21432674 36.93360419 6.2248767 42.10720462 6.2331202 47.28083634 C6.23826924 50.51199584 6.24434497 53.74315246 6.25063133 56.97430992 C6.2696828 67.08064978 6.28391482 77.18698232 6.2922433 87.29333669 C6.30202077 98.96566677 6.32835382 110.63780748 6.36874419 122.31007081 C6.39888207 131.32841111 6.41370991 140.34669704 6.41702431 149.36508673 C6.41937717 154.75324539 6.42836848 160.1412017 6.45348549 165.52930641 C6.47673086 170.59775449 6.48101365 175.66586649 6.47072411 180.73435402 C6.4702278 182.59435136 6.47657612 184.45436506 6.49028015 186.31431198 C6.50794876 188.85450208 6.50091825 191.39347946 6.48774719 193.93367004 C6.49871644 194.66899061 6.50968568 195.40431117 6.52098733 196.16191417 C6.45760646 201.22797836 5.15595768 204.08058975 2 208 C-1.0051848 210.36121663 -4.26488438 210.41860637 -8.03515625 210.3203125 C-11.20305433 209.80387583 -12.83954935 208.28753598 -15 206 C-17.50786541 202.29390379 -17.28262007 198.4636813 -17.26069641 194.14967346 C-17.26452196 193.35349088 -17.26834751 192.5573083 -17.27228898 191.73699898 C-17.28261676 189.06621687 -17.27862727 186.39564984 -17.2746582 183.72485352 C-17.27900479 181.81121623 -17.28418776 179.8975807 -17.29014587 177.98394775 C-17.30355261 172.78358196 -17.3041127 167.58328877 -17.30158257 162.38290906 C-17.30051403 158.04379055 -17.30539322 153.7046868 -17.310188 149.36557144 C-17.3212889 139.13034047 -17.32171725 128.89514619 -17.31567383 118.65991211 C-17.30963204 108.09551975 -17.32194895 97.53126051 -17.3432439 86.96689087 C-17.36084744 77.90098106 -17.36686324 68.83511367 -17.36360615 59.76918739 C-17.36179122 54.35261952 -17.36445049 48.93614661 -17.37832069 43.51959419 C-17.39087417 38.4265412 -17.38897844 33.33369607 -17.37590981 28.24064636 C-17.37353909 26.37056344 -17.37629638 24.50046599 -17.38453293 22.6303997 C-17.39496025 20.07912714 -17.38693228 17.52855721 -17.3742218 14.97731018 C-17.38159609 14.23586795 -17.38897037 13.49442572 -17.39656812 12.73051554 C-17.35011722 8.30395717 -16.68727303 5.53746 -14 2 C-9.7031168 -1.79136753 -5.26920204 -1.58457888 0 0 Z " fill="#020300" transform="translate(351,609)"/>
<path d="M0 0 C8.08387464 5.86819471 14.22978479 13.6101673 16.5390625 23.45703125 C17.72677942 35.27360269 16.41643658 45.45104339 9.2890625 55.26953125 C2.21569997 63.67947396 -6.60503513 68.6214922 -17.4609375 70.45703125 C-28.20081592 71.19771252 -37.88772993 67.93814209 -46.4609375 61.45703125 C-53.98991396 54.49056452 -58.87957255 45.59196473 -59.71875 35.29296875 C-60.09012758 23.92881466 -57.75030089 15.2166573 -50.3671875 6.45703125 C-37.17158684 -7.38753338 -16.32001641 -10.23239124 0 0 Z " fill="#000200" transform="translate(540.4609375,163.54296875)"/>
<path d="M0 0 C8.72541225 5.35454551 16.10083665 14.14923321 18.5546875 24.29296875 C20.31158731 34.97307023 19.12800753 45.20707622 13.45703125 54.5390625 C6.38139533 64.22151165 -3.15451211 70.02575202 -15 72 C-25.80885342 73.04278363 -35.37882872 69.41878803 -44 63 C-51.53238457 56.04370603 -56.41926723 47.12717496 -57.2578125 36.8359375 C-57.64380744 25.02449234 -55.0527312 16.34133681 -47.34765625 7.296875 C-34.83243831 -4.94763107 -15.64159932 -8.51346308 0 0 Z " fill="#010200" transform="translate(450,162)"/>
<path d="M0 0 C8.14932102 6.82268736 13.44907353 16.77454632 14.42578125 27.40625 C14.71816422 38.85535163 11.94264034 47.89665597 4.39453125 56.62109375 C-3.62559502 64.58444037 -12.83702253 68.4104044 -24.0625 68.375 C-35.35953727 68.33229529 -43.8831931 64.51016004 -52.1328125 56.72265625 C-55.05370323 53.40099215 -57.01030172 49.83331359 -58.8125 45.8125 C-59.1321875 45.12542969 -59.451875 44.43835938 -59.78125 43.73046875 C-63.07138045 35.52037472 -63.27363966 25.78996512 -60.1875 17.5 C-59.43855042 15.91658064 -58.64667873 14.35272343 -57.8125 12.8125 C-57.21115234 11.65814453 -57.21115234 11.65814453 -56.59765625 10.48046875 C-52.69869314 3.84658079 -47.29984599 -0.19384481 -40.8125 -4.1875 C-40.18859375 -4.57164062 -39.5646875 -4.95578125 -38.921875 -5.3515625 C-26.85326686 -11.16841417 -10.32689044 -7.36411756 0 0 Z " fill="#010200" transform="translate(366.8125,165.1875)"/>
<path d="M0 0 C2.20433044 1.56300354 2.20433044 1.56300354 4.47436523 3.70922852 C5.34737274 4.5303714 6.22038025 5.35151428 7.11984253 6.19754028 C8.08180136 7.12973032 9.04177989 8.06396727 10 9 C10.5001424 9.48651409 11.00028481 9.97302818 11.51558304 10.47428513 C15.51362559 14.37556696 19.4640166 18.3236826 23.41015625 22.27734375 C24.67127674 23.53778911 25.93254552 24.79808612 27.19395447 26.0582428 C29.81509108 28.67791663 32.43443912 31.29936183 35.05249023 33.92211914 C38.41165258 37.2870254 41.775349 40.64735807 45.14035892 44.00641537 C47.73544196 46.59789444 50.3281506 49.19173844 52.92013359 51.78631783 C54.16059383 53.02744536 55.40179792 54.2678299 56.64375496 55.50745964 C58.36917767 57.23035348 60.09138108 58.95640104 61.81274414 60.68334961 C62.32643051 61.19501175 62.84011688 61.70667389 63.36936951 62.23384094 C66.85465302 65.74019039 68.19476045 67.69538126 68.5 72.625 C68.5721875 73.44226563 68.644375 74.25953125 68.71875 75.1015625 C66.45737094 84.22081936 54.31693105 92.84716029 47.76953125 99.3984375 C46.48867226 100.68251501 45.20788635 101.96666543 43.9271698 103.25088501 C41.25700637 105.92700379 38.58481728 108.60108082 35.91137695 111.27392578 C32.48659145 114.69860909 29.06877165 118.13015578 25.65262318 121.56345177 C23.01636206 124.21081982 20.37558026 126.85364219 17.73349571 129.4951973 C16.47080517 130.75906704 15.20973391 132.02455673 13.95032692 133.29169846 C12.19400387 135.05780816 10.43147147 136.81748241 8.66723633 138.57568359 C8.15027191 139.09826752 7.6333075 139.62085144 7.10067749 140.15927124 C3.12426136 144.10118404 0.69112194 145.80906688 -4.875 146.4375 C-9.66712268 146.33897037 -11.72173592 144.35822174 -15 141 C-16.88385798 137.23228404 -17.10259699 133.97275927 -16 130 C-13.01108798 125.466678 -9.04403408 121.58862484 -5 118 C-4.34 118 -3.68 118 -3 118 C-3 117.34 -3 116.68 -3 116 C-2.34 116 -1.68 116 -1 116 C-1 115.34 -1 114.68 -1 114 C0.46875 112.54878235 0.46875 112.54878235 2.5 110.86450195 C6.86623768 107.14937515 10.94435613 103.21698085 15 99.16796875 C15.7211499 98.45014725 16.4422998 97.73232574 17.18530273 96.99275208 C18.69238218 95.49069473 20.19814717 93.98731744 21.70263672 92.48266602 C24.01641031 90.17110539 26.33810131 87.86769116 28.66015625 85.56445312 C30.12809197 84.09944695 31.59555735 82.6339693 33.0625 81.16796875 C33.75923828 80.47841599 34.45597656 79.78886322 35.17382812 79.07841492 C35.80869141 78.44047501 36.44355469 77.8025351 37.09765625 77.14526367 C37.94082397 76.30423347 37.94082397 76.30423347 38.80102539 75.44621277 C40.21274458 74.05648284 40.21274458 74.05648284 40 72 C39.01 71.505 39.01 71.505 38 71 C38 70.34 38 69.68 38 69 C37.34 69 36.68 69 36 69 C36 68.34 36 67.68 36 67 C35.01 66.67 34.02 66.34 33 66 C31.64613064 64.34997172 30.31321858 62.6825613 29 61 C28.01 60.34 27.02 59.68 26 59 C26 58.34 26 57.68 26 57 C25.34 57 24.68 57 24 57 C24 56.34 24 55.68 24 55 C23.41086319 54.73585297 22.82172638 54.47170593 22.21473694 54.19955444 C19.91423634 52.95354835 18.4066888 51.65422867 16.56420898 49.80712891 C15.58815956 48.83569443 15.58815956 48.83569443 14.59239197 47.84463501 C13.90061356 47.14567108 13.20883514 46.44670715 12.49609375 45.7265625 C11.41655174 44.64633316 11.41655174 44.64633316 10.31520081 43.54428101 C8.79573252 42.02179449 7.27869258 40.49688112 5.76391602 38.96972656 C3.44792906 36.63551115 1.12406833 34.30936913 -1.20117188 31.984375 C-2.67755556 30.50307468 -4.15348241 29.02131887 -5.62890625 27.5390625 C-6.32270889 26.84414703 -7.01651154 26.14923157 -7.7313385 25.43325806 C-8.37888596 24.77933075 -9.02643341 24.12540344 -9.69360352 23.45166016 C-10.26111832 22.88033356 -10.82863312 22.30900696 -11.41334534 21.72036743 C-15.30434911 17.50145557 -16.59994768 14.98990521 -16.4296875 9.2578125 C-15.70013323 5.42433642 -13.79425449 3.66119475 -11 1 C-7.31739942 -0.84130029 -3.99558482 -0.84284516 0 0 Z " fill="#010400" transform="translate(686,492)"/>
<path d="M0 0 C3.62342508 1.6470114 6.16816086 3.4327343 8 7 C8.72433634 13.41555045 7.81239819 15.67596393 4 21 C2.33464841 22.83105413 0.61876026 24.61697617 -1.13574219 26.36279297 C-1.63375839 26.86110123 -2.1317746 27.35940948 -2.6448822 27.87281799 C-4.27417916 29.50073383 -5.91041946 31.12147075 -7.546875 32.7421875 C-8.68502801 33.87660605 -9.82273707 35.01147018 -10.96002197 36.14675903 C-13.94104439 39.12017914 -16.92802567 42.08754137 -19.9163208 45.0536499 C-22.96999633 48.08679344 -26.01795265 51.12567232 -29.06640625 54.1640625 C-35.03871232 60.11497873 -41.01733065 66.05950253 -47 72 C-45.42565365 75.80908193 -43.03111893 78.2042792 -40.12304688 81.08813477 C-39.62853531 81.58133209 -39.13402374 82.07452942 -38.62452698 82.58267212 C-36.99382167 84.20690243 -35.35626009 85.82403917 -33.71875 87.44140625 C-32.58245899 88.5714243 -31.4466833 89.70196074 -30.31140137 90.83299255 C-27.32435039 93.80675236 -24.33178252 96.77489246 -21.33758545 99.74145508 C-16.54389162 104.49199978 -11.75691058 109.24928503 -6.97315979 114.00984001 C-5.30149321 115.6712868 -3.62645337 117.32927648 -1.9510498 118.98695374 C-0.92623557 120.00493965 0.09846924 121.02303573 1.12304688 122.04125977 C2.01858276 122.92854263 2.91411865 123.8158255 3.83679199 124.72999573 C7.70237954 128.78642498 8.49660215 131.29336502 8.390625 136.70703125 C7.72378528 140.62138042 5.87700702 142.3237144 3 145 C-0.7649387 146.25497957 -3.03008618 146.52064444 -7 146 C-15.10664222 140.55314521 -21.97789979 132.18613965 -28.87109375 125.296875 C-30.20240705 123.96877955 -31.53379357 122.6407575 -32.86524963 121.31280518 C-35.63972188 118.54428923 -38.41215164 115.77374632 -41.18334961 113.00195312 C-44.73816697 109.44703349 -48.29985372 105.89908164 -51.8632803 102.35279465 C-54.60753614 99.61963166 -57.34726102 96.88196189 -60.08571053 94.14298248 C-61.39785611 92.83201793 -62.7116258 91.52267687 -64.02703667 90.21498871 C-65.85799614 88.39378872 -67.68255635 86.56640853 -69.50561523 84.73730469 C-70.05049591 84.19804352 -70.59537659 83.65878235 -71.1567688 83.10317993 C-74.51700812 79.71444748 -75.75591954 77.55601295 -76.5 72.8125 C-75.22456581 63.08731427 -62.04493587 53.89999287 -55.26171875 47.12890625 C-53.93115389 45.79766682 -52.60073743 44.46627905 -51.27046204 43.13475037 C-48.49760227 40.36042392 -45.72296074 37.58789545 -42.94702148 34.81665039 C-39.38476843 31.26012755 -35.82706876 27.69908876 -32.27066326 24.1367197 C-29.53163294 21.39408438 -26.79023604 18.65382459 -24.04810524 15.91428947 C-22.73440924 14.60126119 -21.42145741 13.28748792 -20.10925865 11.97296333 C-18.28316913 10.14434472 -16.45392333 8.31894424 -14.6237793 6.49438477 C-14.08092285 5.94950409 -13.53806641 5.40462341 -12.97875977 4.8432312 C-8.49541917 0.38530302 -6.40588553 -0.43429732 0 0 Z " fill="#000200" transform="translate(526,492)"/>
<path d="M0 0 C7.1136477 2.3712159 7.1136477 2.3712159 9 6 C9.37834883 8.49685514 9.37834883 8.49685514 9.38311005 11.36366844 C9.39216669 12.45823526 9.40122333 13.55280207 9.41055441 14.68053758 C9.40522648 15.88266031 9.39989856 17.08478305 9.39440918 18.32333374 C9.40050028 19.60066993 9.40659139 20.87800613 9.41286707 22.19404948 C9.42929926 25.74218662 9.42694208 29.29010205 9.4214921 32.83826399 C9.41882591 36.66386627 9.43334599 40.48940891 9.44558716 44.31498718 C9.46666103 51.81090281 9.47118088 59.30674112 9.46939927 66.80268286 C9.46809259 72.8947468 9.47189101 78.98678658 9.47932434 85.07884598 C9.4814235 86.8324463 9.4835211 88.58604661 9.48561716 90.33964694 C9.48666069 91.21241666 9.48770422 92.08518639 9.48877937 92.98440368 C9.50768975 109.4979899 9.50662914 126.01153171 9.49981004 142.52512427 C9.49423442 157.63639188 9.51505937 172.74748997 9.54817051 187.85871796 C9.58189358 203.36943841 9.59707754 218.88007761 9.59245348 234.3908354 C9.59020733 243.10113854 9.59547311 251.811285 9.62034607 260.52155685 C9.64134142 267.93717852 9.64496891 275.35255761 9.62604648 282.76818918 C9.61687743 286.5523207 9.61578065 290.33599972 9.63640213 294.12009621 C9.65850472 298.22131776 9.641923 302.32146926 9.62145996 306.42269897 C9.63397781 307.62036026 9.64649566 308.81802155 9.65939283 310.05197561 C9.56306758 319.02561149 9.56306758 319.02561149 6.71115875 322.72358131 C4 325 4 325 0 326 C0 218.42 0 110.84 0 0 Z " fill="#55A822" transform="translate(1034,156)"/>
<path d="M0 0 C3.98507565 0.99626891 5.14109437 1.50333603 7.21630764 4.94000256 C8.96656136 9.54068309 8.54463383 14.55178346 8.50793457 19.40525818 C8.51417453 20.66726345 8.5204145 21.92926871 8.52684355 23.22951657 C8.54352803 26.7256777 8.53529483 30.2214016 8.52289867 33.71756423 C8.51384668 37.49066404 8.52781869 41.26368879 8.53881836 45.03677368 C8.55660714 52.42583697 8.55276189 59.81473775 8.5411678 67.20380741 C8.53213446 73.20952981 8.53090904 79.21520667 8.53526306 85.22093391 C8.53587599 86.07568654 8.53648893 86.93043916 8.53712043 87.81109338 C8.53839934 89.54751707 8.53969619 91.28394075 8.5410108 93.02036441 C8.55241782 109.30414959 8.53930134 125.58784471 8.51780933 141.87161512 C8.49994144 155.84194544 8.50303966 169.81214279 8.52148438 183.7824707 C8.54289446 200.00640921 8.5513158 216.23026874 8.53903532 232.4542194 C8.53776113 234.18456303 8.53650365 235.91490667 8.53526306 237.64525032 C8.53464596 238.49660548 8.53402886 239.34796064 8.53339306 240.22511445 C8.52994033 246.22267592 8.5357669 252.22018729 8.54518127 258.21774101 C8.55640431 265.52823616 8.55335499 272.83855954 8.5320583 280.14903503 C8.5215514 283.87855581 8.51741962 287.60779027 8.53065491 291.33730888 C8.54478811 295.38104085 8.52790392 299.42405098 8.50793457 303.46775818 C8.51685746 304.64557859 8.52578034 305.82339901 8.53497362 307.03691095 C8.47288861 313.50436758 8.10396869 317.8581666 4 323 C2.68 323.33 1.36 323.66 0 324 C0 217.08 0 110.16 0 0 Z " fill="#56A821" transform="translate(176,521)"/>
<path d="M0 0 C1.98 0 3.96 0 6 0 C5.67 107.58 5.34 215.16 5 326 C3.35 326 1.7 326 0 326 C0 218.42 0 110.84 0 0 Z " fill="#1BF005" transform="translate(171,520)"/>
<path d="M0 0 C1.32 0 2.64 0 4 0 C4 107.58 4 215.16 4 326 C2.68 326 1.36 326 0 326 C0 218.42 0 110.84 0 0 Z " fill="#1AFC01" transform="translate(1030,156)"/>
<path d="M0 0 C0.66 0 1.32 0 2 0 C4.22060505 3.33090758 4.25149745 4.36465473 4.25726891 8.24620724 C4.2637178 9.3400164 4.27016669 10.43382557 4.276811 11.56078047 C4.2737138 12.76718028 4.2706166 13.97358009 4.26742554 15.21653748 C4.27195665 16.49443038 4.27648776 17.77232328 4.28115618 19.0889402 C4.29342165 22.64315813 4.29312157 26.19728218 4.29076743 29.75151646 C4.29036016 33.58185672 4.30138974 37.41216652 4.31088257 41.24249268 C4.32751254 48.74922531 4.332993 56.25592654 4.33410732 63.76267605 C4.33505678 69.86240385 4.3391619 75.96212126 4.34550858 82.06184578 C4.36312579 99.34451034 4.3723466 116.62715004 4.37084763 133.90982365 C4.37076772 134.84200616 4.3706878 135.77418867 4.37060547 136.73461914 C4.37052371 137.66793582 4.37044195 138.6012525 4.37035771 139.5628515 C4.36954448 154.69490643 4.38869004 169.82686189 4.4168822 184.95888805 C4.44558175 200.48537983 4.45942414 216.01182306 4.45769465 231.53834206 C4.45702977 240.25975465 4.46256478 248.98106295 4.48405075 257.70245171 C4.502224 265.12690705 4.50664173 272.55121083 4.4930319 279.97567873 C4.48648285 283.76557494 4.48645425 287.55518004 4.5037384 291.3450489 C4.5222633 295.44908136 4.50996555 299.55243415 4.49447632 303.65647888 C4.50476344 304.86064797 4.51505057 306.06481707 4.52564943 307.30547613 C4.51645184 308.40189304 4.50725425 309.49830995 4.49777794 310.62795162 C4.49821267 311.57562623 4.49864741 312.52330084 4.49909532 313.49969286 C4 316 4 316 0 320 C0 214.4 0 108.8 0 0 Z " fill="#C5384F" transform="translate(1039,159)"/>
<path d="M0 0 C0.66 0 1.32 0 2 0 C2 105.27 2 210.54 2 319 C-2 315 -2 315 -2.49909532 312.49854219 C-2.49866058 311.55032551 -2.49822585 310.60210883 -2.49777794 309.62515831 C-2.50697553 308.5281247 -2.51617312 307.43109109 -2.52564943 306.30081403 C-2.5153623 305.09596282 -2.50507518 303.89111161 -2.49447632 302.64974976 C-2.49930515 301.3695913 -2.50413398 300.08943284 -2.50910914 298.77048171 C-2.52195123 295.21452629 -2.50978907 291.65902541 -2.49358058 288.10309982 C-2.48043748 284.26940695 -2.49032105 280.43576535 -2.49734497 276.60206604 C-2.50743475 269.09140152 -2.49613904 261.58091295 -2.47764437 254.07027029 C-2.45689386 245.33002538 -2.45701626 236.58981869 -2.45798953 227.84955378 C-2.45899109 212.25969135 -2.440658 196.66991095 -2.41162109 181.08007812 C-2.3834359 165.93976345 -2.36927993 150.79952096 -2.37060547 135.65917969 C-2.37068538 134.72643177 -2.37076529 133.79368386 -2.37084763 132.83267085 C-2.37092834 131.90156165 -2.37100905 130.97045246 -2.3710922 130.01112783 C-2.37247058 112.79063172 -2.36070052 95.57016638 -2.34278577 78.34968024 C-2.33674422 72.25162681 -2.33462561 66.15357901 -2.33372116 60.05552292 C-2.33235927 52.62959242 -2.32346308 45.20371379 -2.30505554 37.77780531 C-2.29579892 33.9862127 -2.28973613 30.19468658 -2.29224396 26.40308189 C-2.29482583 22.30074112 -2.28198113 18.19859865 -2.26742554 14.09628296 C-2.27052274 12.8869703 -2.27361995 11.67765765 -2.276811 10.43169916 C-2.27036211 9.33988104 -2.26391322 8.24806292 -2.25726891 7.12315941 C-2.25586006 6.17526743 -2.25445121 5.22737546 -2.25299966 4.25075948 C-2 2 -2 2 0 0 Z " fill="#CDFE00" transform="translate(1023,160)"/>
<path d="M0 0 C0.33 0 0.66 0 1 0 C1 104.94 1 209.88 1 318 C0.01 317.67 -0.98 317.34 -2 317 C-3.00790328 313.97629017 -3.12722828 311.96213339 -3.13142776 308.80064487 C-3.13526891 307.7172859 -3.13911005 306.63392692 -3.1430676 305.51773888 C-3.14220112 304.32301191 -3.14133463 303.12828494 -3.14044189 301.89735413 C-3.14341302 300.63171188 -3.14638414 299.36606964 -3.1494453 298.0620746 C-3.15752318 294.54208317 -3.1593053 291.02211211 -3.16004276 287.50211251 C-3.1618919 283.70859168 -3.16943844 279.91508147 -3.17617798 276.12156677 C-3.18976651 267.82422127 -3.19578657 259.52688059 -3.20018864 251.2295258 C-3.20294967 246.05124957 -3.20718672 240.87297521 -3.21169281 235.69470024 C-3.22388519 221.36443861 -3.23418519 207.03417849 -3.2375679 192.70391178 C-3.23778747 191.7865639 -3.23800703 190.86921603 -3.23823325 189.92406973 C-3.23845153 189.00450199 -3.23866981 188.08493425 -3.2388947 187.13750082 C-3.23933817 185.27404026 -3.23978473 183.4105797 -3.24023438 181.54711914 C-3.2404558 180.62277431 -3.24067723 179.69842947 -3.24090537 178.74607419 C-3.24485562 163.75953641 -3.2623167 148.77304719 -3.2855939 133.78652818 C-3.30928587 118.4092032 -3.32176874 103.03190261 -3.32293582 87.65455908 C-3.32385369 79.01699933 -3.3296343 70.37950288 -3.34775543 61.74196053 C-3.36312726 54.38889395 -3.36829414 47.03591022 -3.36001733 39.68283064 C-3.35610068 35.92943292 -3.35708959 32.17620221 -3.37107468 28.42282486 C-3.38608103 24.35830469 -3.37797744 20.29416369 -3.36749268 16.22962952 C-3.37554908 15.03713327 -3.38360548 13.84463702 -3.39190602 12.61600453 C-3.38531618 11.5300378 -3.37872633 10.44407107 -3.3719368 9.32519627 C-3.37253389 8.38663495 -3.37313097 7.44807363 -3.37374616 6.48107105 C-2.932809 3.55396023 -1.99057401 2.15600271 0 0 Z " fill="#CFF600" transform="translate(164,523)"/>
<path d="M0 0 C3.75210534 3.75210534 4.12463513 4.96164479 4.13142776 10.05789661 C4.13526891 11.13516445 4.13911005 12.21243229 4.1430676 13.3223446 C4.14220112 14.51541134 4.14133463 15.70847808 4.14044189 16.93769836 C4.14489858 18.82769641 4.14489858 18.82769641 4.1494453 20.75587624 C4.15753349 24.26479485 4.15930588 27.77369301 4.16004276 31.28261983 C4.16189017 35.062544 4.16943592 38.84245748 4.17617798 42.62237549 C4.18977481 50.8929887 4.19578814 59.16359707 4.20018864 67.4342196 C4.20294882 72.59591478 4.20718577 77.75760808 4.21169281 82.91930199 C4.22388732 97.20319787 4.23418622 111.48709225 4.2375679 125.77099323 C4.23778747 126.68565706 4.23800703 127.60032088 4.23823325 128.54270179 C4.23845153 129.45958722 4.23866981 130.37647266 4.2388947 131.32114249 C4.23933817 133.17918289 4.23978473 135.03722328 4.24023438 136.89526367 C4.2404558 137.81692108 4.24067723 138.73857849 4.24090537 139.68816491 C4.2448542 154.62559185 4.26230998 169.56297002 4.2855939 184.50037811 C4.3092919 199.82682571 4.32176905 215.15324883 4.32293582 230.47971505 C4.32385346 239.08881705 4.32962818 247.69785554 4.34775543 256.30694008 C4.36313553 263.63731175 4.3682893 270.96760027 4.36001733 278.29798499 C4.35610335 282.03934828 4.35707664 285.78054402 4.37107468 289.52188683 C4.38610135 293.57516327 4.3779693 297.62806011 4.36749268 301.68135071 C4.37554908 302.86772528 4.38360548 304.05409986 4.39190602 305.27642518 C4.38531618 306.36151626 4.37872633 307.44660734 4.3719368 308.56457996 C4.37253389 309.50026587 4.37313097 310.43595178 4.37374616 311.39999181 C3.92484186 314.52284628 2.81906034 316.44701579 1 319 C0.67 319 0.34 319 0 319 C0 213.73 0 108.46 0 0 Z " fill="#B52B49" transform="translate(180,523)"/>
<path d="M0 0 C4.20754926 2.4351384 6.66108607 4.59266239 8.8203125 9.046875 C9.67091252 13.88672316 9.94995558 18.86289838 7.6484375 23.3125 C4.2734981 27.45288957 1.08642956 29.66441148 -4.28125 30.29296875 C-9.76873479 30.59578982 -12.88415578 29.72875933 -17.1796875 26.046875 C-21.13433905 21.54675427 -21.53765987 17.35832667 -21.453125 11.55078125 C-20.971518 7.14063717 -19.03043669 4.54621612 -15.63671875 1.796875 C-10.66982775 -1.47649939 -5.53078621 -2.41847999 0 0 Z " fill="#7EFA00" transform="translate(437.1796875,180.953125)"/>
<path d="M0 0 C4.03518229 2.33538023 7.21580168 4.53418831 8.8203125 9.046875 C9.52202017 15.0214146 9.3298881 19.96404137 5.8203125 25.046875 C1.11700845 29.39743124 -2.65136437 30.40309169 -8.89453125 30.33203125 C-13.35289743 29.77568812 -16.12002257 27.25270061 -18.9921875 23.984375 C-21.84992856 19.32174485 -21.75792086 14.34184048 -21.1796875 9.046875 C-19.10082783 4.55653811 -16.45077905 1.94585943 -12.09765625 -0.25390625 C-7.74663635 -1.84012328 -4.16252458 -1.82017204 0 0 Z " fill="#48FA00" transform="translate(525.1796875,180.953125)"/>
<path d="M0 0 C4.03518229 2.33538023 7.21580168 4.53418831 8.8203125 9.046875 C9.52202017 15.0214146 9.3298881 19.96404137 5.8203125 25.046875 C1.11700845 29.39743124 -2.65136437 30.40309169 -8.89453125 30.33203125 C-13.35289743 29.77568812 -16.12002257 27.25270061 -18.9921875 23.984375 C-21.84992856 19.32174485 -21.75792086 14.34184048 -21.1796875 9.046875 C-19.10082783 4.55653811 -16.45077905 1.94585943 -12.09765625 -0.25390625 C-7.74663635 -1.84012328 -4.16252458 -1.82017204 0 0 Z " fill="#B4FA00" transform="translate(349.1796875,180.953125)"/>
<path d="M0 0 C0.66 0 1.32 0 2 0 C2 106.26 2 212.52 2 322 C0.68 321.34 -0.64 320.68 -2 320 C-1.34 319.67 -0.68 319.34 0 319 C0 213.73 0 108.46 0 0 Z " fill="#9AFE00" transform="translate(165,522)"/>
<path d="M0 0 C0.66 0 1.32 0 2 0 C2.33 105.93 2.66 211.86 3 321 C2.01 321.33 1.02 321.66 0 322 C0 215.74 0 109.48 0 0 Z " fill="#887636" transform="translate(178,522)"/>
</svg>
